<?xml version="1.0" encoding="UTF-8" standalone="no"?>
<!DOCTYPE svg PUBLIC "-//W3C//DTD SVG 1.1//EN" "http://www.w3.org/Graphics/SVG/1.1/DTD/svg11.dtd">
<svg width="100%" height="100%" viewBox="0 0 1200 400" version="1.1" xmlns="http://www.w3.org/2000/svg" xmlns:xlink="http://www.w3.org/1999/xlink" xml:space="preserve" xmlns:serif="http://www.serif.com/" style="fill-rule:evenodd;clip-rule:evenodd;stroke-linejoin:round;stroke-miterlimit:2;">
    <g transform="matrix(4.166667,0,0,4.166667,989.05125,306.121667)">
        <path d="M0,-47.686L-0.912,-46.781L-0.912,-22.816C-0.912,-16.743 -2.463,-12.198 -5.557,-9.177C-8.653,-6.15 -13.301,-4.641 -19.509,-4.641C-23.853,-4.641 -27.43,-5.396 -30.257,-6.912L-32.465,-2.945C-28.541,-1.064 -24.105,0 -19.403,0C-3.425,0 9.532,-12.259 9.532,-27.383C9.532,-35.435 5.852,-42.677 0,-47.686" style="fill:#0d133b;"/>
    </g>
    <g transform="matrix(4.166667,0,0,4.166667,849.866667,129.809167)">
        <path d="M0,33.111C-3.114,30.071 -4.671,25.532 -4.671,19.502L-4.671,-4.468C-4.671,-4.468 -2.864,-7.213 1.136,-9.59C-8.393,-5.112 -14.937,4.192 -14.937,14.936C-14.937,22.632 -11.582,29.586 -6.177,34.558L-9.193,42.701L-0.091,38.855C0.248,39.033 0.59,39.205 0.941,39.368L3.146,35.404C1.965,34.771 0.916,34.009 0,33.111" style="fill:#74c7c2;"/>
    </g>
    <g transform="matrix(4.166667,0,0,4.166667,830.400417,219.37125)">
        <path d="M0,-25.962L11.611,-25.962L11.611,-1.992C11.611,1.525 12.165,4.07 13.268,5.633C14.368,7.198 16.137,7.977 18.565,7.977C21.059,7.977 22.937,7.142 24.202,5.455C25.469,3.776 26.101,1.293 26.101,-1.992L26.101,-25.962L37.161,-25.962L38.077,-26.865C32.942,-31.262 26.138,-33.939 18.669,-33.939C14.047,-33.939 9.683,-32.909 5.807,-31.087C1.808,-28.712 0,-25.962 0,-25.962" style="fill:#04a9c6;"/>
    </g>
    <g transform="matrix(4.166667,0,0,4.166667,939.152917,186.922083)">
        <path d="M0,5.794C0,9.081 -0.632,11.564 -1.897,13.243C-3.163,14.926 -5.043,15.766 -7.536,15.766C-9.967,15.766 -11.733,14.984 -12.837,13.421C-13.938,11.854 -14.488,9.312 -14.488,5.794L-14.488,-18.174L-26.101,-18.174L-26.101,5.794C-26.101,11.826 -24.543,16.361 -21.429,19.401C-20.513,20.3 -19.464,21.061 -18.283,21.696C-15.455,23.212 -11.874,23.968 -7.536,23.968C-1.326,23.968 3.324,22.458 6.42,19.435C9.513,16.411 11.061,11.864 11.061,5.794L11.061,-18.174L0,-18.174L0,5.794Z" style="fill:#fff;"/>
    </g>
    <g transform="matrix(4.166667,0,0,4.166667,188.294583,269.41125)">
        <path d="M0,-1.789C-0.041,-2.06 -0.18,-2.285 -0.421,-2.467C-0.666,-2.653 -0.943,-2.741 -1.265,-2.741C-1.534,-2.741 -1.775,-2.694 -1.977,-2.586L-2.465,-2.178C-2.589,-2.007 -2.682,-1.807 -2.741,-1.582C-2.801,-1.358 -2.827,-1.119 -2.827,-0.872C-2.827,-0.631 -2.801,-0.403 -2.741,-0.189L-2.461,0.397L-1.974,0.806C-1.771,0.904 -1.534,0.956 -1.265,0.956C-0.883,0.956 -0.584,0.843 -0.364,0.623C-0.139,0.4 0,0.101 0.048,-0.27L1.274,-0.27C1.242,0.066 1.159,0.375 1.023,0.651C0.888,0.923 0.71,1.159 0.485,1.355C0.263,1.551 0.003,1.701 -0.291,1.807C-0.586,1.909 -0.911,1.963 -1.265,1.963C-1.697,1.963 -2.092,1.889 -2.443,1.746C-2.795,1.599 -3.097,1.399 -3.343,1.141C-3.585,0.885 -3.77,0.583 -3.902,0.237C-4.032,-0.109 -4.095,-0.48 -4.095,-0.872C-4.095,-1.27 -4.032,-1.653 -3.902,-2C-3.77,-2.354 -3.585,-2.66 -3.343,-2.92C-3.097,-3.184 -2.795,-3.388 -2.443,-3.535C-2.092,-3.678 -1.697,-3.752 -1.265,-3.752C-0.943,-3.752 -0.644,-3.71 -0.355,-3.624C-0.074,-3.537 0.185,-3.411 0.408,-3.237C0.627,-3.073 0.812,-2.864 0.951,-2.621C1.099,-2.378 1.188,-2.1 1.228,-1.789L0,-1.789Z" style="fill:#bfdbfe;"/>
    </g>
    <g transform="matrix(4.166667,0,0,4.166667,197.199583,277.044583)">
        <path d="M0,-5.456L4.311,-5.456L4.311,-4.447L1.266,-4.447L1.266,-3.275L4.065,-3.275L4.065,-2.348L1.266,-2.348L1.266,-1.008L4.378,-1.008L4.378,0L0,0L0,-5.456Z" style="fill:#bfdbfe;"/>
    </g>
    <g transform="matrix(4.166667,0,0,4.166667,219.00125,277.044583)">
        <path d="M0,-5.456L1.263,-5.456L3.666,-1.794L3.68,-1.794L3.68,-5.456L4.872,-5.456L4.872,0L3.601,0L1.202,-3.652L1.187,-3.652L1.187,0L0,0L0,-5.456Z" style="fill:#bfdbfe;"/>
    </g>
    <g transform="matrix(4.166667,0,0,4.166667,249.24625,272.852083)">
        <path d="M0,-3.44L-1.727,-3.44L-1.727,-4.449L2.997,-4.449L2.997,-3.44L1.27,-3.44L1.27,1.009L0,1.009L0,-3.44Z" style="fill:#bfdbfe;"/>
    </g>
    <g transform="matrix(4.166667,0,0,4.166667,269.778333,266.743333)">
        <path d="M0,-0.512L1.387,-0.512C1.678,-0.512 1.895,-0.576 2.044,-0.701C2.188,-0.828 2.26,-1.024 2.26,-1.295C2.26,-1.553 2.188,-1.741 2.044,-1.866C1.895,-1.99 1.678,-2.049 1.387,-2.049L0,-2.049L0,-0.512ZM-1.271,-2.984L1.841,-2.984C2.095,-2.984 2.325,-2.944 2.536,-2.866L3.074,-2.543L3.413,-2.065L3.527,-1.475C3.527,-1.146 3.452,-0.864 3.308,-0.634C3.155,-0.397 2.931,-0.227 2.616,-0.11L2.616,-0.095C2.901,-0.019 3.107,0.124 3.236,0.352C3.358,0.581 3.432,0.855 3.455,1.183L3.464,1.365C3.481,1.624 3.501,1.847 3.53,2.03L3.695,2.472L2.43,2.472L2.327,2.125L2.274,1.607L2.229,1.166C2.184,0.871 2.095,0.662 1.952,0.534C1.806,0.405 1.578,0.343 1.268,0.343L0,0.343L0,2.472L-1.271,2.472L-1.271,-2.984Z" style="fill:#bfdbfe;"/>
    </g>
    <g transform="matrix(4.166667,0,0,4.166667,293.397083,262.759583)">
        <path d="M0,1.407L0.28,1.994L0.769,2.399C0.964,2.503 1.203,2.553 1.474,2.553C1.752,2.553 1.99,2.503 2.19,2.397L2.679,1.99L2.95,1.407C3.017,1.192 3.042,0.964 3.042,0.726C3.042,0.474 3.017,0.236 2.95,0.013C2.896,-0.208 2.806,-0.411 2.679,-0.582L2.19,-0.993C1.99,-1.096 1.752,-1.146 1.474,-1.146C1.203,-1.146 0.964,-1.096 0.762,-0.993L0.276,-0.582C0.15,-0.411 0.057,-0.208 0,0.013C-0.063,0.236 -0.089,0.474 -0.089,0.726C-0.089,0.964 -0.063,1.192 0,1.407M-1.165,-0.403C-1.034,-0.757 -0.846,-1.065 -0.604,-1.328C-0.357,-1.588 -0.059,-1.792 0.293,-1.94C0.647,-2.081 1.04,-2.153 1.474,-2.153C1.915,-2.153 2.303,-2.081 2.659,-1.94C3.017,-1.792 3.312,-1.588 3.561,-1.328C3.808,-1.065 3.996,-0.757 4.122,-0.403C4.247,-0.056 4.312,0.324 4.312,0.726C4.312,1.117 4.247,1.485 4.122,1.83C3.996,2.173 3.808,2.472 3.561,2.733C3.312,2.995 3.017,3.193 2.659,3.344C2.303,3.487 1.915,3.56 1.474,3.56C1.04,3.56 0.647,3.487 0.293,3.344C-0.059,3.193 -0.357,2.995 -0.604,2.738C-0.846,2.479 -1.034,2.179 -1.165,1.834C-1.292,1.486 -1.36,1.117 -1.36,0.726C-1.36,0.324 -1.292,-0.056 -1.165,-0.403" style="fill:#bfdbfe;"/>
    </g>
    <g transform="matrix(4.166667,0,0,4.166667,329.590833,266.743333)">
        <path d="M0,-0.512L1.388,-0.512C1.679,-0.512 1.9,-0.576 2.044,-0.701C2.191,-0.828 2.263,-1.024 2.263,-1.295C2.263,-1.553 2.191,-1.741 2.044,-1.866C1.9,-1.99 1.679,-2.049 1.388,-2.049L0,-2.049L0,-0.512ZM-1.27,-2.984L1.842,-2.984C2.098,-2.984 2.326,-2.944 2.537,-2.866L3.075,-2.543L3.416,-2.065L3.531,-1.475C3.531,-1.146 3.456,-0.864 3.307,-0.634C3.16,-0.397 2.927,-0.227 2.62,-0.11L2.62,-0.095C2.904,-0.019 3.11,0.124 3.237,0.352C3.363,0.581 3.434,0.855 3.456,1.183L3.466,1.365C3.479,1.624 3.503,1.847 3.531,2.03L3.7,2.472L2.431,2.472L2.333,2.125L2.275,1.607L2.229,1.166C2.189,0.871 2.096,0.662 1.951,0.534C1.809,0.405 1.58,0.343 1.271,0.343L0,0.343L0,2.472L-1.27,2.472L-1.27,-2.984Z" style="fill:#bfdbfe;"/>
    </g>
    <g transform="matrix(4.166667,0,0,4.166667,348.60125,277.044583)">
        <path d="M0,-5.456L4.314,-5.456L4.314,-4.447L1.27,-4.447L1.27,-3.275L4.065,-3.275L4.065,-2.348L1.27,-2.348L1.27,-1.008L4.38,-1.008L4.38,0L0,0L0,-5.456Z" style="fill:#bfdbfe;"/>
    </g>
    <g transform="matrix(4.166667,0,0,4.166667,387.769583,256.89625)">
        <path d="M0,4.217C-0.208,4.475 -0.453,4.668 -0.727,4.787C-1.002,4.906 -1.287,4.965 -1.584,4.965C-2.018,4.965 -2.411,4.892 -2.765,4.747C-3.12,4.605 -3.416,4.404 -3.662,4.145C-3.906,3.888 -4.094,3.588 -4.223,3.241C-4.353,2.895 -4.417,2.526 -4.417,2.129C-4.417,1.731 -4.353,1.356 -4.223,1.006C-4.094,0.65 -3.906,0.342 -3.662,0.079C-3.416,-0.183 -3.12,-0.385 -2.765,-0.528C-2.411,-0.678 -2.018,-0.748 -1.584,-0.748C-1.287,-0.748 -0.998,-0.703 -0.716,-0.617C-0.438,-0.534 -0.187,-0.407 0.04,-0.246C0.261,-0.078 0.446,0.123 0.584,0.367C0.725,0.605 0.814,0.877 0.847,1.178L-0.367,1.178C-0.434,0.881 -0.579,0.655 -0.794,0.496C-1.014,0.34 -1.276,0.261 -1.584,0.261C-1.859,0.261 -2.097,0.31 -2.296,0.414L-2.784,0.825C-2.908,1 -3.003,1.197 -3.062,1.421C-3.12,1.645 -3.148,1.881 -3.148,2.129C-3.148,2.371 -3.12,2.602 -3.062,2.819L-2.78,3.402L-2.291,3.81C-2.097,3.908 -1.859,3.96 -1.584,3.96C-1.175,3.96 -0.855,3.856 -0.619,3.656C-0.381,3.452 -0.249,3.164 -0.208,2.782L-1.486,2.782L-1.486,1.887L0.938,1.887L0.938,4.837L0.131,4.837L0,4.217Z" style="fill:#bfdbfe;"/>
    </g>
    <g transform="matrix(4.166667,0,0,4.166667,-27.3425,-773.934583)">
        <rect x="101.588" y="246.781" width="1.271" height="5.457" style="fill:#bfdbfe;"/>
    </g>
    <g transform="matrix(4.166667,0,0,4.166667,410.48875,262.759583)">
        <path d="M0,1.407L0.277,1.994L0.767,2.399C0.961,2.503 1.2,2.553 1.478,2.553C1.75,2.553 1.988,2.503 2.19,2.397L2.678,1.99L2.954,1.407C3.014,1.192 3.041,0.964 3.041,0.726C3.041,0.474 3.014,0.236 2.954,0.013C2.895,-0.208 2.804,-0.411 2.678,-0.582L2.19,-0.993C1.988,-1.096 1.75,-1.146 1.478,-1.146C1.2,-1.146 0.961,-1.096 0.762,-0.993L0.275,-0.582C0.146,-0.411 0.055,-0.208 0,0.013C-0.062,0.236 -0.092,0.474 -0.092,0.726C-0.092,0.964 -0.062,1.192 0,1.407M-1.164,-0.403C-1.035,-0.757 -0.848,-1.065 -0.606,-1.328C-0.36,-1.588 -0.062,-1.792 0.291,-1.94C0.645,-2.081 1.04,-2.153 1.478,-2.153C1.912,-2.153 2.303,-2.081 2.659,-1.94C3.012,-1.792 3.312,-1.588 3.559,-1.328C3.811,-1.065 3.995,-0.757 4.122,-0.403C4.251,-0.056 4.312,0.324 4.312,0.726C4.312,1.117 4.251,1.485 4.122,1.83C3.995,2.173 3.811,2.472 3.559,2.733C3.312,2.995 3.012,3.193 2.659,3.344C2.303,3.487 1.912,3.56 1.478,3.56C1.04,3.56 0.645,3.487 0.291,3.344C-0.062,3.193 -0.36,2.995 -0.606,2.738C-0.848,2.479 -1.035,2.179 -1.164,1.834C-1.292,1.486 -1.36,1.117 -1.36,0.726C-1.36,0.324 -1.292,-0.056 -1.164,-0.403" style="fill:#bfdbfe;"/>
    </g>
    <g transform="matrix(4.166667,0,0,4.166667,432.050417,277.044583)">
        <path d="M0,-5.456L1.262,-5.456L3.667,-1.794L3.681,-1.794L3.681,-5.456L4.87,-5.456L4.87,0L3.599,0L1.201,-3.652L1.188,-3.652L1.188,0L0,0L0,-5.456Z" style="fill:#bfdbfe;"/>
    </g>
    <g transform="matrix(4.166667,0,0,4.166667,463.044167,263.097083)">
        <path d="M0,1.242L1.493,1.242L0.766,-0.762L0.748,-0.762L0,1.242ZM0.121,-2.108L1.417,-2.108L3.574,3.35L2.259,3.35L1.823,2.132L-0.332,2.132L-0.786,3.35L-2.07,3.35L0.121,-2.108Z" style="fill:#bfdbfe;"/>
    </g>
    <g transform="matrix(4.166667,0,0,4.166667,480.028333,277.044583)">
        <path d="M0,-5.456L1.27,-5.456L1.27,-1.008L4.081,-1.008L4.081,0L0,0L0,-5.456Z" style="fill:#bfdbfe;"/>
    </g>
    <g transform="matrix(4.166667,0,0,4.166667,529.722917,263.446667)">
        <path d="M0,1.203C0,1.923 -0.214,2.471 -0.643,2.841C-1.068,3.212 -1.677,3.394 -2.463,3.394C-3.249,3.394 -3.854,3.212 -4.28,2.845C-4.705,2.48 -4.918,1.93 -4.918,1.203L-4.918,-2.191L-3.652,-2.191L-3.652,1.203L-3.607,1.658L-3.432,2.031L-3.064,2.289C-2.908,2.35 -2.707,2.388 -2.463,2.388C-2.024,2.388 -1.712,2.292 -1.534,2.106C-1.359,1.918 -1.27,1.62 -1.27,1.203L-1.27,-2.191L0,-2.191L0,1.203Z" style="fill:#bfdbfe;"/>
    </g>
    <g transform="matrix(4.166667,0,0,4.166667,534.272083,277.044583)">
        <path d="M0,-5.456L1.255,-5.456L3.666,-1.794L3.679,-1.794L3.679,-5.456L4.864,-5.456L4.864,0L3.6,0L1.201,-3.652L1.186,-3.652L1.186,0L0,0L0,-5.456Z" style="fill:#bfdbfe;"/>
    </g>
    <g transform="matrix(4.166667,0,0,4.166667,-27.3425,-773.934583)">
        <rect x="140.768" y="246.781" width="1.27" height="5.457" style="fill:#bfdbfe;"/>
    </g>
    <g transform="matrix(4.166667,0,0,4.166667,580.2925,254.32)">
        <path d="M0,5.454L-1.429,5.454L-3.302,0L-1.997,0L-0.71,3.836L-0.698,3.836L0.607,0L1.916,0L0,5.454Z" style="fill:#bfdbfe;"/>
    </g>
    <g transform="matrix(4.166667,0,0,4.166667,590.31875,277.044583)">
        <path d="M0,-5.456L4.313,-5.456L4.313,-4.447L1.269,-4.447L1.269,-3.275L4.062,-3.275L4.062,-2.348L1.269,-2.348L1.269,-1.008L4.375,-1.008L4.375,0L0,0L0,-5.456Z" style="fill:#bfdbfe;"/>
    </g>
    <g transform="matrix(4.166667,0,0,4.166667,617.402083,266.743333)">
        <path d="M0,-0.512L1.387,-0.512C1.678,-0.512 1.901,-0.576 2.044,-0.701C2.19,-0.828 2.262,-1.024 2.262,-1.295C2.262,-1.553 2.19,-1.741 2.044,-1.866C1.901,-1.99 1.678,-2.049 1.387,-2.049L0,-2.049L0,-0.512ZM-1.27,-2.984L1.841,-2.984C2.097,-2.984 2.327,-2.944 2.534,-2.866L3.074,-2.543L3.416,-2.065L3.53,-1.475C3.53,-1.146 3.456,-0.864 3.304,-0.634C3.158,-0.397 2.928,-0.227 2.618,-0.11L2.618,-0.095C2.899,-0.019 3.108,0.124 3.237,0.352C3.36,0.581 3.434,0.855 3.456,1.183L3.462,1.365C3.479,1.624 3.5,1.847 3.53,2.03L3.698,2.472L2.429,2.472L2.333,2.125L2.274,1.607L2.229,1.166C2.189,0.871 2.096,0.662 1.949,0.534C1.808,0.405 1.578,0.343 1.268,0.343L0,0.343L0,2.472L-1.27,2.472L-1.27,-2.984Z" style="fill:#bfdbfe;"/>
    </g>
    <g transform="matrix(4.166667,0,0,4.166667,640.01375,261.86125)">
        <path d="M0,1.835C0,2.175 0.124,2.429 0.359,2.598C0.598,2.761 0.903,2.844 1.276,2.844L1.653,2.814L2.012,2.705L2.291,2.494L2.397,2.163L2.291,1.856L2.01,1.641L1.622,1.489C1.483,1.448 1.294,1.405 1.058,1.351L0.687,1.259C0.435,1.194 0.208,1.127 0.016,1.057L-0.516,0.778L-0.892,0.341C-0.989,0.166 -1.034,-0.044 -1.034,-0.288C-1.034,-0.555 -0.973,-0.8 -0.853,-1.011L-0.359,-1.528C-0.153,-1.666 0.077,-1.769 0.334,-1.836C0.591,-1.905 0.854,-1.94 1.121,-1.94C1.435,-1.94 1.73,-1.905 2.006,-1.844C2.284,-1.775 2.529,-1.671 2.744,-1.528C2.953,-1.384 3.122,-1.2 3.245,-0.978C3.368,-0.755 3.432,-0.486 3.432,-0.185L2.208,-0.185C2.189,-0.486 2.076,-0.701 1.878,-0.824C1.675,-0.947 1.403,-1.011 1.068,-1.011C0.83,-1.011 0.624,-0.955 0.452,-0.855L0.192,-0.389L0.256,-0.131L0.482,0.035L0.911,0.185C1.092,0.233 1.377,0.309 1.782,0.406L1.913,0.439L1.963,0.442L2.495,0.595L3.005,0.856L3.447,1.318C3.569,1.516 3.625,1.748 3.625,2.026C3.625,2.544 3.418,2.967 2.994,3.289C2.574,3.614 1.986,3.775 1.231,3.775C0.901,3.775 0.589,3.737 0.293,3.664C0.001,3.586 -0.26,3.466 -0.488,3.306C-0.717,3.146 -0.901,2.941 -1.03,2.692C-1.165,2.447 -1.228,2.158 -1.228,1.835L0,1.835Z" style="fill:#bfdbfe;"/>
    </g>
    <g transform="matrix(4.166667,0,0,4.166667,-27.3425,-773.934583)">
        <rect x="164.545" y="246.781" width="1.264" height="5.457" style="fill:#bfdbfe;"/>
    </g>
    <g transform="matrix(4.166667,0,0,4.166667,673.487083,272.852083)">
        <path d="M0,-3.44L-1.729,-3.44L-1.729,-4.449L2.999,-4.449L2.999,-3.44L1.27,-3.44L1.27,1.009L0,1.009L0,-3.44Z" style="fill:#bfdbfe;"/>
    </g>
    <g transform="matrix(4.166667,0,0,4.166667,692.294167,263.097083)">
        <path d="M0,1.242L1.495,1.242L0.766,-0.762L0.75,-0.762L0,1.242ZM0.124,-2.108L1.421,-2.108L3.579,3.35L2.263,3.35L1.828,2.132L-0.329,2.132L-0.781,3.35L-2.068,3.35L0.124,-2.108Z" style="fill:#bfdbfe;"/>
    </g>
    <g transform="matrix(4.166667,0,0,4.166667,714.572083,266.743333)">
        <path d="M0,-0.512L1.388,-0.512C1.68,-0.512 1.899,-0.576 2.041,-0.701C2.186,-0.828 2.26,-1.024 2.26,-1.295C2.26,-1.553 2.186,-1.741 2.041,-1.866C1.899,-1.99 1.68,-2.049 1.388,-2.049L0,-2.049L0,-0.512ZM-1.27,-2.984L1.841,-2.984C2.097,-2.984 2.325,-2.944 2.535,-2.866L3.075,-2.543L3.41,-2.065L3.527,-1.475C3.527,-1.146 3.455,-0.864 3.306,-0.634C3.158,-0.397 2.929,-0.227 2.617,-0.11L2.617,-0.095C2.902,-0.019 3.105,0.124 3.236,0.352C3.361,0.581 3.43,0.855 3.455,1.183L3.464,1.365C3.478,1.624 3.502,1.847 3.529,2.03L3.694,2.472L2.43,2.472L2.329,2.125L2.275,1.607L2.229,1.166C2.184,0.871 2.093,0.662 1.95,0.534C1.808,0.405 1.578,0.343 1.266,0.343L0,0.343L0,2.472L-1.27,2.472L-1.27,-2.984Z" style="fill:#bfdbfe;"/>
    </g>
    <g transform="matrix(4.166667,0,0,4.166667,-27.3425,-773.934583)">
        <rect x="182.623" y="246.781" width="1.271" height="5.457" style="fill:#bfdbfe;"/>
    </g>
    <g transform="matrix(4.166667,0,0,4.166667,748.117083,262.759583)">
        <path d="M0,1.407L0.278,1.994L0.767,2.399C0.962,2.503 1.201,2.553 1.478,2.553C1.75,2.553 1.992,2.503 2.19,2.397L2.681,1.99L2.954,1.407C3.017,1.192 3.043,0.964 3.043,0.726C3.043,0.474 3.017,0.236 2.954,0.013C2.896,-0.208 2.803,-0.411 2.681,-0.582L2.19,-0.993C1.992,-1.096 1.75,-1.146 1.478,-1.146C1.201,-1.146 0.962,-1.096 0.764,-0.993L0.275,-0.582C0.147,-0.411 0.057,-0.208 0,0.013C-0.061,0.236 -0.093,0.474 -0.093,0.726C-0.093,0.964 -0.061,1.192 0,1.407M-1.161,-0.403C-1.035,-0.757 -0.847,-1.065 -0.602,-1.328C-0.355,-1.588 -0.057,-1.792 0.297,-1.94C0.645,-2.081 1.043,-2.153 1.478,-2.153C1.91,-2.153 2.308,-2.081 2.661,-1.94C3.013,-1.792 3.313,-1.588 3.562,-1.328C3.808,-1.065 3.994,-0.757 4.122,-0.403C4.249,-0.056 4.314,0.324 4.314,0.726C4.314,1.117 4.249,1.485 4.122,1.83C3.994,2.173 3.808,2.472 3.562,2.733C3.313,2.995 3.013,3.193 2.661,3.344C2.308,3.487 1.91,3.56 1.478,3.56C1.043,3.56 0.645,3.487 0.297,3.344C-0.057,3.193 -0.355,2.995 -0.602,2.738C-0.847,2.479 -1.035,2.179 -1.161,1.834C-1.291,1.486 -1.356,1.117 -1.356,0.726C-1.356,0.324 -1.291,-0.056 -1.161,-0.403" style="fill:#bfdbfe;"/>
    </g>
    <g transform="matrix(4.166667,0,0,4.166667,336.567083,300.706667)">
        <path d="M0,3.847L1.267,3.847L1.874,3.75L2.391,3.433C2.537,3.288 2.658,3.097 2.745,2.861C2.831,2.624 2.877,2.343 2.877,2.016C2.877,1.36 2.733,0.862 2.452,0.514C2.167,0.173 1.69,0 1.015,0L0,0L0,3.847ZM-1.418,-1.129L1.366,-1.129C2.239,-1.129 2.945,-0.875 3.485,-0.352C4.025,0.162 4.294,0.911 4.294,1.888C4.294,2.34 4.236,2.751 4.112,3.125C3.993,3.498 3.809,3.826 3.561,4.105C3.315,4.385 3.007,4.599 2.64,4.748C2.275,4.899 1.848,4.976 1.366,4.976L-1.418,4.976L-1.418,-1.129Z" style="fill:#bfdbfe;"/>
    </g>
    <g transform="matrix(4.166667,0,0,4.166667,363.727917,321.441667)">
        <path d="M0,-6.104L4.829,-6.104L4.829,-4.977L1.417,-4.977L1.417,-3.669L4.543,-3.669L4.543,-2.629L1.417,-2.629L1.417,-1.129L4.898,-1.129L4.898,0L0,0L0,-6.104Z" style="fill:#bfdbfe;"/>
    </g>
    <g transform="matrix(4.166667,0,0,4.166667,414.824167,300.345833)">
        <path d="M0,4.021L1.52,4.021C1.839,4.021 2.095,3.961 2.282,3.836C2.475,3.713 2.565,3.509 2.565,3.217C2.565,2.912 2.477,2.693 2.296,2.55C2.113,2.413 1.863,2.339 1.543,2.339L0,2.339L0,4.021ZM0,1.429L1.44,1.429C1.702,1.429 1.915,1.369 2.07,1.246C2.227,1.129 2.306,0.944 2.306,0.703C2.306,0.435 2.218,0.251 2.038,0.153C1.861,0.049 1.624,0.002 1.329,0.002L0,0.002L0,1.429ZM-1.417,-1.042L1.619,-1.042C2.274,-1.042 2.78,-0.923 3.141,-0.693C3.497,-0.458 3.679,-0.074 3.679,0.472C3.679,1.054 3.386,1.478 2.802,1.745C3.185,1.846 3.481,2.035 3.681,2.306C3.883,2.574 3.985,2.903 3.985,3.294C3.985,3.591 3.924,3.852 3.805,4.073C3.675,4.299 3.508,4.485 3.294,4.628C3.082,4.777 2.837,4.886 2.565,4.956C2.296,5.029 2.014,5.063 1.71,5.063L-1.417,5.063L-1.417,-1.042Z" style="fill:#bfdbfe;"/>
    </g>
    <g transform="matrix(4.166667,0,0,4.166667,445.746667,305.420417)">
        <path d="M0,1.582C0.062,1.828 0.172,2.04 0.311,2.237L0.858,2.696C1.08,2.802 1.345,2.862 1.652,2.862C1.958,2.862 2.226,2.802 2.45,2.689L3.002,2.231C3.137,2.04 3.24,1.828 3.306,1.582C3.374,1.342 3.405,1.086 3.405,0.816C3.405,0.538 3.374,0.271 3.306,0.02C3.24,-0.228 3.137,-0.448 3.002,-0.645L2.45,-1.105C2.226,-1.222 1.958,-1.274 1.652,-1.274C1.345,-1.274 1.08,-1.222 0.854,-1.105L0.303,-0.645C0.166,-0.448 0.062,-0.228 0,0.02C-0.066,0.271 -0.099,0.538 -0.099,0.816C-0.099,1.086 -0.066,1.342 0,1.582M-1.303,-0.447C-1.158,-0.843 -0.951,-1.185 -0.676,-1.479C-0.399,-1.772 -0.064,-1.999 0.329,-2.162C0.724,-2.324 1.165,-2.407 1.652,-2.407C2.143,-2.407 2.582,-2.324 2.979,-2.162C3.372,-1.999 3.708,-1.772 3.984,-1.479C4.259,-1.185 4.472,-0.843 4.611,-0.447C4.753,-0.053 4.828,0.368 4.828,0.816C4.828,1.256 4.753,1.669 4.611,2.055C4.472,2.439 4.259,2.778 3.984,3.066C3.708,3.358 3.372,3.582 2.979,3.747C2.582,3.906 2.143,3.989 1.652,3.989C1.165,3.989 0.724,3.906 0.329,3.747C-0.064,3.582 -0.399,3.358 -0.676,3.071C-0.951,2.783 -1.158,2.446 -1.303,2.058C-1.447,1.671 -1.521,1.256 -1.521,0.816C-1.521,0.368 -1.447,-0.053 -1.303,-0.447" style="fill:#bfdbfe;"/>
    </g>
    <g transform="matrix(4.166667,0,0,4.166667,475.033333,321.441667)">
        <path d="M0,-6.104L1.424,-6.104L1.424,-1.129L4.565,-1.129L4.565,0L0,0L0,-6.104Z" style="fill:#bfdbfe;"/>
    </g>
    <g transform="matrix(4.166667,0,0,4.166667,-27.3425,-687.90125)">
        <rect x="126.967" y="236.132" width="1.422" height="6.107" style="fill:#bfdbfe;"/>
    </g>
    <g transform="matrix(4.166667,0,0,4.166667,531.301667,296.016667)">
        <path d="M0,6.103L-1.6,6.103L-3.696,0L-2.231,0L-0.794,4.293L-0.777,4.293L0.678,0L2.143,0L0,6.103Z" style="fill:#bfdbfe;"/>
    </g>
    <g transform="matrix(4.166667,0,0,4.166667,552.712917,305.855)">
        <path d="M0,1.379L1.676,1.379L0.861,-0.86L0.844,-0.86L0,1.379ZM0.142,-2.362L1.596,-2.362L4.01,3.741L2.534,3.741L2.045,2.379L-0.372,2.379L-0.871,3.741L-2.314,3.741L0.142,-2.362Z" style="fill:#bfdbfe;"/>
    </g>
    <g transform="matrix(4.166667,0,0,4.166667,582.82375,309.949167)">
        <path d="M0,-0.586L1.553,-0.586C1.876,-0.586 2.124,-0.656 2.284,-0.797C2.444,-0.936 2.526,-1.159 2.526,-1.457C2.526,-1.75 2.444,-1.964 2.284,-2.099C2.124,-2.235 1.876,-2.303 1.553,-2.303L0,-2.303L0,-0.586ZM-1.421,-3.345L2.058,-3.345C2.342,-3.345 2.599,-3.306 2.837,-3.22C3.068,-3.134 3.271,-3.013 3.435,-2.857L3.818,-2.317C3.901,-2.114 3.951,-1.895 3.951,-1.663C3.951,-1.291 3.861,-0.978 3.701,-0.719C3.53,-0.46 3.276,-0.267 2.925,-0.132L2.925,-0.118C3.245,-0.037 3.476,0.13 3.618,0.384C3.758,0.638 3.842,0.948 3.867,1.313L3.873,1.517C3.893,1.808 3.918,2.055 3.951,2.26L4.137,2.759L2.716,2.759L2.603,2.363C2.583,2.218 2.566,2.023 2.546,1.792L2.495,1.297C2.442,0.966 2.337,0.729 2.181,0.586C2.02,0.442 1.763,0.372 1.417,0.372L0,0.372L0,2.759L-1.421,2.759L-1.421,-3.345Z" style="fill:#bfdbfe;"/>
    </g>
    <g transform="matrix(4.166667,0,0,4.166667,-27.3425,-689.617917)">
        <rect x="48.514" y="239.082" width="33.595" height="0.619" style="fill:#bfdbfe;"/>
    </g>
    <g transform="matrix(4.166667,0,0,4.166667,-27.3425,-689.617917)">
        <rect x="155.181" y="239.082" width="33.59" height="0.619" style="fill:#bfdbfe;"/>
    </g>
    <g transform="matrix(4.166667,0,0,4.166667,401.618333,172.835)">
        <path d="M0,-4.245L-7.433,-4.245L-7.433,-11.503L-0.381,-11.503C0.927,-11.503 1.997,-11.208 2.841,-10.627C3.679,-10.037 4.103,-9.17 4.103,-8.031C4.103,-5.507 2.735,-4.245 0,-4.245M12.992,10.982C12.879,10.305 12.807,9.757 12.775,9.332C12.744,8.912 12.698,8.223 12.63,7.259L12.587,6.717C12.523,5.845 12.386,5.012 12.182,4.214C11.972,3.418 11.688,2.66 11.319,1.938C10.958,1.214 10.466,0.594 9.844,0.065C9.223,-0.459 8.482,-0.812 7.627,-0.992L7.627,-1.085C9.344,-1.715 10.664,-2.768 11.584,-4.245C12.508,-5.715 12.968,-7.351 12.968,-9.159C12.968,-10.72 12.643,-12.079 11.99,-13.238C11.338,-14.398 10.449,-15.343 9.32,-16.081C8.191,-16.817 6.921,-17.359 5.504,-17.702C4.095,-18.05 2.606,-18.224 1.052,-18.224L-16.297,-18.224L-16.297,13.979L-7.433,13.979L-7.433,2.252L-0.712,2.252C0.275,2.252 1.082,2.432 1.717,2.793C2.354,3.156 2.848,3.644 3.193,4.26C3.544,4.877 3.791,5.54 3.934,6.242C4.081,6.953 4.182,7.815 4.248,8.838C4.248,8.867 4.259,9.048 4.293,9.378C4.386,10.404 4.498,11.329 4.623,12.153C4.756,12.979 4.959,13.59 5.244,13.979L14.016,13.979C13.765,13.743 13.558,13.348 13.396,12.806C13.238,12.264 13.105,11.659 12.992,10.982" style="fill:#0d133b;"/>
    </g>
    <g transform="matrix(4.166667,0,0,4.166667,705.416667,128.447083)">
        <path d="M0,17.057C-0.844,17.628 -2.008,17.914 -3.504,17.914L-10.607,17.914L-10.607,10.517L-3.504,10.517C-2.04,10.517 -0.883,10.809 -0.024,11.394C0.833,11.98 1.266,12.953 1.266,14.303C1.266,15.566 0.844,16.484 0,17.057M-10.607,-1.075L-3.745,-1.075C-2.691,-1.075 -1.83,-0.829 -1.142,-0.33C-0.462,0.165 -0.116,0.955 -0.116,2.036C-0.116,3.093 -0.491,3.863 -1.242,4.36C-1.988,4.855 -2.82,5.103 -3.745,5.103L-10.607,5.103L-10.607,-1.075ZM8.559,9.797C7.511,8.414 6.079,7.481 4.263,6.999C5.635,6.336 6.726,5.443 7.53,4.311C8.34,3.188 8.746,1.918 8.746,0.506C8.746,-1.059 8.416,-2.375 7.747,-3.441C7.079,-4.508 6.173,-5.346 5.033,-5.947C3.889,-6.547 2.6,-6.967 1.17,-7.21C-0.263,-7.45 -1.835,-7.573 -3.553,-7.573L-19.473,-7.573L-19.473,24.63L-3.124,24.63C-1.214,24.63 0.536,24.462 2.118,24.113C3.712,23.768 5.109,23.214 6.319,22.445C7.526,21.681 8.462,20.649 9.132,19.357C9.799,18.066 10.132,16.484 10.132,14.622C10.132,12.79 9.608,11.177 8.559,9.797" style="fill:#0d133b;"/>
    </g>
    <g transform="matrix(4.166667,0,0,4.166667,599.645,108.539167)">
        <path d="M0,14.354L0,-2.796L-8.866,-2.796L-8.866,16.604L-8.88,17.15C-7.568,17.018 -6.183,16.811 -4.701,16.507C-3.157,16.191 -1.576,15.459 0,14.354" style="fill:#74c7c2;"/>
    </g>
    <g transform="matrix(4.166667,0,0,4.166667,562.37875,147.240417)">
        <path d="M0,8.717C-0.166,10.152 -0.598,11.265 -1.305,12.051C-2.225,13.073 -3.757,13.581 -5.88,13.581C-8.007,13.581 -9.538,13.073 -10.458,12.051C-11.377,11.023 -11.838,9.451 -11.838,7.315L-11.838,-12.081L-20.706,-12.081L-20.706,6.819C-20.706,11.541 -19.506,15.048 -17.105,17.347C-14.706,19.652 -10.966,20.798 -5.88,20.798C-0.795,20.798 2.945,19.652 5.343,17.347C7.746,15.048 8.946,11.541 8.946,6.819L8.946,6.096C7.441,7.075 5.925,7.742 4.429,8.047C2.862,8.37 1.39,8.585 0,8.717" style="fill:#0d133b;"/>
    </g>
    <g transform="matrix(4.166667,0,0,4.166667,269.178333,134.21875)">
        <path d="M0,-6.356C-0.71,-4.766 -1.539,-3.35 -2.47,-2.113C-1.647,-1.902 -0.911,-1.579 -0.27,-1.13C0.953,-0.274 1.671,0.954 1.899,2.546L10.767,2.546C10.702,0.682 10.214,-1.013 9.312,-2.525C8.405,-4.047 7.202,-5.337 5.712,-6.408C4.219,-7.471 2.566,-8.279 0.755,-8.82L0.444,-8.902C0.262,-7.348 0.05,-6.496 0.039,-6.454L0,-6.356Z" style="fill:#0d133b;"/>
    </g>
    <g transform="matrix(4.166667,0,0,4.166667,217.408333,115.672917)">
        <path d="M0,8.034C0.301,6.894 0.769,5.869 1.407,4.969C2.039,4.067 2.863,3.352 3.883,2.825C4.901,2.297 6.093,2.039 7.459,2.039C7.997,2.039 8.506,2.08 8.992,2.15C9.98,0.891 10.855,-0.575 11.602,-2.237C11.606,-2.26 11.818,-3.129 11.99,-4.675C10.562,-5.008 9.116,-5.182 7.648,-5.182C5.142,-5.182 2.835,-4.753 0.739,-3.897C-1.365,-3.04 -3.166,-1.841 -4.67,-0.309C-6.183,1.225 -7.334,3.013 -8.132,5.058C-8.922,7.1 -9.321,9.281 -9.321,11.599C-9.321,12.14 -9.295,12.68 -9.25,13.216C-6.465,12.713 -3.48,11.506 -0.314,9.606C-0.237,9.073 -0.139,8.548 0,8.034" style="fill:#74c7c2;"/>
    </g>
    <g transform="matrix(4.166667,0,0,4.166667,179.30375,219.778333)">
        <path d="M0,-10.925C0.187,-9.516 0.513,-8.153 1.016,-6.845C1.812,-4.802 2.961,-3.014 4.474,-1.482C5.98,0.05 7.784,1.246 9.882,2.102C11.981,2.959 14.284,3.388 16.792,3.388C18.96,3.388 20.96,3.09 22.8,2.489C24.644,1.889 26.256,1.023 27.641,-0.107C29.024,-1.234 30.119,-2.615 30.93,-4.257C31.74,-5.892 32.207,-7.734 32.334,-9.779L23.469,-9.779C23.306,-7.913 22.642,-6.456 21.466,-5.408C20.289,-4.353 18.67,-3.826 16.606,-3.826C15.239,-3.826 14.045,-4.091 13.025,-4.616C12.012,-5.139 11.185,-5.854 10.553,-6.756C9.913,-7.66 9.444,-8.683 9.146,-9.825C8.839,-10.967 8.693,-12.152 8.693,-13.386C8.693,-13.697 8.703,-14.009 8.721,-14.313C5.648,-12.539 2.735,-11.414 0,-10.925" style="fill:#0d133b;"/>
    </g>
    <g transform="matrix(-2.681816,3.188883,3.188883,2.681816,510.328725,292.251875)">
        <path d="M-0.405,-1.226L1.444,-1.226L0.852,-0.523L-1.278,-0.189L-0.405,-1.226Z" style="fill:#bfdbfe;"/>
    </g>
</svg>
