<?xml version="1.0" encoding="UTF-8" standalone="no"?>
<!DOCTYPE svg PUBLIC "-//W3C//DTD SVG 1.1//EN" "http://www.w3.org/Graphics/SVG/1.1/DTD/svg11.dtd">
<svg width="100%" height="100%" viewBox="0 0 1200 400" version="1.1" xmlns="http://www.w3.org/2000/svg" xmlns:xlink="http://www.w3.org/1999/xlink" xml:space="preserve" xmlns:serif="http://www.serif.com/" style="fill-rule:evenodd;clip-rule:evenodd;stroke-linejoin:round;stroke-miterlimit:2;">
    <g transform="matrix(4.166667,0,0,4.166667,809.076894,259.0625)">
        <path d="M0,-28.377C0.229,-28.377 0.414,-28.19 0.414,-27.965L0.414,9.142C0.414,9.369 0.229,9.554 0,9.554C-0.227,9.554 -0.413,9.369 -0.413,9.142L-0.413,-27.965C-0.413,-28.19 -0.227,-28.377 0,-28.377M-17.109,7.381C-17.109,8.252 -16.403,8.956 -15.533,8.956C-14.664,8.956 -13.958,8.252 -13.958,7.381L-13.958,4.439C-13.958,2.201 -13.067,0.977 -11.471,0.604C-10.828,0.458 -10.289,-0.038 -10.289,-0.867C-10.289,-1.759 -10.849,-2.401 -11.822,-2.401C-12.755,-2.401 -13.503,-1.406 -13.958,-0.329L-13.958,-0.827C-13.958,-1.696 -14.664,-2.401 -15.533,-2.401C-16.403,-2.401 -17.109,-1.696 -17.109,-0.827L-17.109,7.381ZM-24.723,6.863C-25.739,6.863 -26.443,6.367 -26.443,5.518L-26.443,5.476C-26.443,4.48 -25.614,3.941 -24.267,3.941C-23.5,3.941 -22.796,4.106 -22.257,4.356L-22.257,4.915C-22.257,6.054 -23.252,6.863 -24.723,6.863M-25.676,9.04C-24.143,9.04 -23.085,8.48 -22.318,7.631L-22.318,7.651C-22.318,8.315 -21.718,8.956 -20.806,8.956C-19.956,8.956 -19.272,8.293 -19.272,7.444L-19.272,2.387C-19.272,0.894 -19.645,-0.329 -20.474,-1.157C-21.262,-1.944 -22.505,-2.401 -24.226,-2.401C-25.697,-2.401 -26.775,-2.193 -27.77,-1.82C-28.268,-1.635 -28.62,-1.157 -28.62,-0.598C-28.62,0.128 -28.039,0.687 -27.313,0.687C-27.168,0.687 -27.044,0.667 -26.857,0.604C-26.256,0.418 -25.552,0.295 -24.682,0.295C-23.106,0.295 -22.297,1.019 -22.297,2.325L-22.297,2.512C-23.085,2.242 -23.894,2.054 -25.014,2.054C-27.646,2.054 -29.489,3.174 -29.489,5.599L-29.489,5.641C-29.489,7.838 -27.77,9.04 -25.676,9.04M-33.706,7.693L-30.307,-0.163C-30.245,-0.308 -30.14,-0.639 -30.14,-0.909C-30.14,-1.759 -30.824,-2.401 -31.654,-2.401C-32.482,-2.401 -32.919,-1.862 -33.125,-1.323L-35.551,5.164L-37.933,-1.282C-38.163,-1.924 -38.618,-2.401 -39.468,-2.401C-40.316,-2.401 -41.001,-1.675 -41.001,-0.929C-41.001,-0.639 -40.919,-0.37 -40.835,-0.163L-37.437,7.693C-37.084,8.522 -36.504,9.061 -35.654,9.061L-35.488,9.061C-34.639,9.061 -34.058,8.502 -33.706,7.693M-44.326,-3.375C-43.621,-3.375 -43.123,-3.499 -42.522,-4.06L-41.237,-5.262C-40.988,-5.489 -40.823,-5.717 -40.823,-6.007C-40.823,-6.484 -41.817,-6.961 -42.585,-6.961C-43.103,-6.961 -43.496,-6.692 -43.766,-6.256L-44.906,-4.474C-45.01,-4.308 -45.113,-4.101 -45.113,-3.914C-45.113,-3.583 -44.781,-3.375 -44.326,-3.375M-45.818,7.381C-45.818,8.252 -45.113,8.956 -44.243,8.956C-43.373,8.956 -42.667,8.252 -42.667,7.381L-42.667,-0.827C-42.667,-1.696 -43.373,-2.401 -44.243,-2.401C-45.113,-2.401 -45.818,-1.696 -45.818,-0.827L-45.818,7.381ZM-51.526,7.381C-51.526,8.252 -50.821,8.956 -49.951,8.956C-49.08,8.956 -48.376,8.252 -48.376,7.381L-48.376,-4.847C-48.376,-5.717 -49.08,-6.422 -49.951,-6.422C-50.821,-6.422 -51.526,-5.717 -51.526,-4.847L-51.526,7.381ZM-59.389,6.367C-61.129,6.367 -62.311,4.936 -62.311,3.299L-62.311,3.257C-62.311,1.619 -61.233,0.232 -59.43,0.232C-57.69,0.232 -56.509,1.661 -56.509,3.299L-56.509,3.34C-56.509,4.978 -57.585,6.367 -59.389,6.367M-59.43,9.081C-55.969,9.081 -53.399,6.49 -53.399,3.299L-53.399,3.257C-53.399,0.064 -55.949,-2.484 -59.389,-2.484C-62.85,-2.484 -65.42,0.107 -65.42,3.299L-65.42,3.34C-65.42,6.533 -62.872,9.081 -59.43,9.081M-75.854,6.034L-75.854,2.843L-72.165,2.843C-70.527,2.843 -69.802,3.445 -69.802,4.417L-69.802,4.459C-69.802,5.537 -70.651,6.034 -72.062,6.034L-75.854,6.034ZM-75.854,0.191L-75.854,-2.877L-72.704,-2.877C-71.356,-2.877 -70.611,-2.338 -70.611,-1.386L-70.611,-1.344C-70.611,-0.267 -71.502,0.191 -72.911,0.191L-75.854,0.191ZM-78.964,7.237C-78.964,8.127 -78.258,8.832 -77.367,8.832L-72.062,8.832C-68.786,8.832 -66.631,7.506 -66.631,4.853L-66.631,4.812C-66.631,2.863 -67.666,1.889 -69.346,1.247C-68.31,0.667 -67.438,-0.245 -67.438,-1.883L-67.438,-1.924C-67.438,-2.919 -67.771,-3.727 -68.433,-4.39C-69.263,-5.22 -70.569,-5.675 -72.227,-5.675L-77.367,-5.675C-78.258,-5.675 -78.964,-4.972 -78.964,-4.081L-78.964,7.237ZM-88.547,7.734C-88.319,7.527 -88.132,7.215 -88.132,6.802C-88.132,6.097 -88.651,5.558 -89.356,5.558C-89.687,5.558 -89.894,5.641 -90.122,5.807C-90.764,6.284 -91.49,6.554 -92.36,6.554C-93.77,6.554 -94.766,5.807 -95.075,4.376L-88.837,4.376C-88.008,4.376 -87.366,3.775 -87.366,2.863C-87.366,0.564 -89.003,-2.484 -92.712,-2.484C-95.947,-2.484 -98.206,0.128 -98.206,3.299L-98.206,3.34C-98.206,6.739 -95.738,9.081 -92.401,9.081C-90.786,9.081 -89.521,8.562 -88.547,7.734M-95.118,2.407C-94.869,0.977 -94.018,0.045 -92.712,0.045C-91.386,0.045 -90.558,0.998 -90.371,2.407L-95.118,2.407ZM-105.738,0.191C-104.265,0.191 -103.042,1.413 -103.042,3.257L-103.042,3.299C-103.042,5.143 -104.265,6.367 -105.738,6.367C-107.208,6.367 -108.453,5.143 -108.453,3.299L-108.453,3.257C-108.453,1.392 -107.208,0.191 -105.738,0.191M-99.934,-4.847C-99.934,-5.717 -100.638,-6.422 -101.509,-6.422C-102.379,-6.422 -103.084,-5.717 -103.084,-4.847L-103.084,-0.827C-103.829,-1.717 -104.866,-2.484 -106.547,-2.484C-109.178,-2.484 -111.604,-0.454 -111.604,3.257L-111.604,3.299C-111.604,7.009 -109.137,9.04 -106.547,9.04C-104.908,9.04 -103.852,8.272 -103.084,7.237L-103.084,7.381C-103.084,8.252 -102.379,8.956 -101.509,8.956C-100.638,8.956 -99.934,8.252 -99.934,7.381L-99.934,-4.847ZM-17.067,-19.491C-15.596,-19.491 -14.373,-18.268 -14.373,-16.422L-14.373,-16.382C-14.373,-14.538 -15.596,-13.314 -17.067,-13.314C-18.538,-13.314 -19.781,-14.538 -19.781,-16.382L-19.781,-16.422C-19.781,-18.289 -18.538,-19.491 -17.067,-19.491M-11.263,-24.527C-11.263,-25.399 -11.968,-26.103 -12.839,-26.103C-13.709,-26.103 -14.414,-25.399 -14.414,-24.527L-14.414,-20.506C-15.16,-21.398 -16.197,-22.165 -17.875,-22.165C-20.507,-22.165 -22.933,-20.134 -22.933,-16.422L-22.933,-16.382C-22.933,-12.671 -20.466,-10.641 -17.875,-10.641C-16.237,-10.641 -15.181,-11.409 -14.414,-12.444L-14.414,-12.298C-14.414,-11.428 -13.709,-10.724 -12.839,-10.724C-11.968,-10.724 -11.263,-11.428 -11.263,-12.298L-11.263,-24.527ZM-30.05,-12.817C-31.065,-12.817 -31.77,-13.314 -31.77,-14.165L-31.77,-14.207C-31.77,-15.201 -30.941,-15.741 -29.593,-15.741C-28.827,-15.741 -28.122,-15.574 -27.583,-15.326L-27.583,-14.766C-27.583,-13.626 -28.578,-12.817 -30.05,-12.817M-31.003,-10.641C-29.469,-10.641 -28.412,-11.201 -27.646,-12.05L-27.646,-12.029C-27.646,-11.366 -27.044,-10.724 -26.132,-10.724C-25.283,-10.724 -24.599,-11.387 -24.599,-12.237L-24.599,-17.294C-24.599,-18.786 -24.972,-20.01 -25.801,-20.839C-26.588,-21.627 -27.832,-22.082 -29.553,-22.082C-31.023,-22.082 -32.102,-21.875 -33.096,-21.501C-33.595,-21.315 -33.947,-20.839 -33.947,-20.279C-33.947,-19.554 -33.366,-18.995 -32.64,-18.995C-32.496,-18.995 -32.371,-19.015 -32.184,-19.076C-31.583,-19.264 -30.878,-19.388 -30.008,-19.388C-28.433,-19.388 -27.624,-18.662 -27.624,-17.356L-27.624,-17.17C-28.412,-17.439 -29.22,-17.625 -30.341,-17.625C-32.972,-17.625 -34.816,-16.507 -34.816,-14.081L-34.816,-14.041C-34.816,-11.843 -33.096,-10.641 -31.003,-10.641M-42.226,-19.491C-40.752,-19.491 -39.53,-18.268 -39.53,-16.422L-39.53,-16.382C-39.53,-14.538 -40.752,-13.314 -42.226,-13.314C-43.696,-13.314 -44.94,-14.538 -44.94,-16.382L-44.94,-16.422C-44.94,-18.289 -43.696,-19.491 -42.226,-19.491M-36.42,-24.527C-36.42,-25.399 -37.125,-26.103 -37.996,-26.103C-38.866,-26.103 -39.571,-25.399 -39.571,-24.527L-39.571,-20.506C-40.316,-21.398 -41.354,-22.165 -43.034,-22.165C-45.665,-22.165 -48.091,-20.134 -48.091,-16.422L-48.091,-16.382C-48.091,-12.671 -45.623,-10.641 -43.034,-10.641C-41.395,-10.641 -40.338,-11.409 -39.571,-12.444L-39.571,-12.298C-39.571,-11.428 -38.866,-10.724 -37.996,-10.724C-37.125,-10.724 -36.42,-11.428 -36.42,-12.298L-36.42,-24.527ZM-53.155,-12.298C-53.155,-11.428 -52.45,-10.724 -51.58,-10.724C-50.709,-10.724 -50.004,-11.428 -50.004,-12.298L-50.004,-20.506C-50.004,-21.377 -50.709,-22.082 -51.58,-22.082C-52.45,-22.082 -53.155,-21.377 -53.155,-20.506L-53.155,-12.298ZM-53.342,-24.569C-53.342,-23.657 -52.576,-23.077 -51.58,-23.077C-50.586,-23.077 -49.818,-23.657 -49.818,-24.569L-49.818,-24.61C-49.818,-25.522 -50.586,-26.082 -51.58,-26.082C-52.576,-26.082 -53.342,-25.522 -53.342,-24.61L-53.342,-24.569ZM-58.864,-12.298C-58.864,-11.428 -58.159,-10.724 -57.289,-10.724C-56.417,-10.724 -55.713,-11.428 -55.713,-12.298L-55.713,-24.527C-55.713,-25.399 -56.417,-26.103 -57.289,-26.103C-58.159,-26.103 -58.864,-25.399 -58.864,-24.527L-58.864,-12.298ZM-66.623,-12.817C-67.637,-12.817 -68.343,-13.314 -68.343,-14.165L-68.343,-14.207C-68.343,-15.201 -67.515,-15.741 -66.167,-15.741C-65.401,-15.741 -64.696,-15.574 -64.157,-15.326L-64.157,-14.766C-64.157,-13.626 -65.152,-12.817 -66.623,-12.817M-67.577,-10.641C-66.043,-10.641 -64.986,-11.201 -64.218,-12.05L-64.218,-12.029C-64.218,-11.366 -63.617,-10.724 -62.706,-10.724C-61.855,-10.724 -61.171,-11.387 -61.171,-12.237L-61.171,-17.294C-61.171,-18.786 -61.544,-20.01 -62.374,-20.839C-63.162,-21.627 -64.404,-22.082 -66.125,-22.082C-67.597,-22.082 -68.675,-21.875 -69.67,-21.501C-70.167,-21.315 -70.519,-20.839 -70.519,-20.279C-70.519,-19.554 -69.939,-18.995 -69.214,-18.995C-69.069,-18.995 -68.944,-19.015 -68.758,-19.076C-68.158,-19.264 -67.452,-19.388 -66.583,-19.388C-65.006,-19.388 -64.198,-18.662 -64.198,-17.356L-64.198,-17.17C-64.986,-17.439 -65.794,-17.625 -66.913,-17.625C-69.545,-17.625 -71.391,-16.507 -71.391,-14.081L-71.391,-14.041C-71.391,-11.843 -69.67,-10.641 -67.577,-10.641M-78.363,-13.314C-79.833,-13.314 -81.057,-14.538 -81.057,-16.382L-81.057,-16.422C-81.057,-18.268 -79.833,-19.491 -78.363,-19.491C-76.891,-19.491 -75.646,-18.268 -75.646,-16.422L-75.646,-16.382C-75.646,-14.517 -76.891,-13.314 -78.363,-13.314M-84.166,-8.983C-84.166,-8.112 -83.461,-7.408 -82.59,-7.408C-81.72,-7.408 -81.016,-8.112 -81.016,-8.983L-81.016,-12.298C-80.27,-11.409 -79.233,-10.641 -77.554,-10.641C-74.921,-10.641 -72.498,-12.671 -72.498,-16.382L-72.498,-16.422C-72.498,-20.134 -74.964,-22.165 -77.554,-22.165C-79.192,-22.165 -80.248,-21.398 -81.016,-20.362L-81.016,-20.506C-81.016,-21.377 -81.72,-22.082 -82.59,-22.082C-83.461,-22.082 -84.166,-21.377 -84.166,-20.506L-84.166,-8.983ZM-89.729,-12.298C-89.729,-11.428 -89.024,-10.724 -88.153,-10.724C-87.283,-10.724 -86.579,-11.428 -86.579,-12.298L-86.579,-20.506C-86.579,-21.377 -87.283,-22.082 -88.153,-22.082C-89.024,-22.082 -89.729,-21.377 -89.729,-20.506L-89.729,-12.298ZM-89.915,-24.569C-89.915,-23.657 -89.148,-23.077 -88.153,-23.077C-87.158,-23.077 -86.392,-23.657 -86.392,-24.569L-86.392,-24.61C-86.392,-25.522 -87.158,-26.082 -88.153,-26.082C-89.148,-26.082 -89.915,-25.522 -89.915,-24.61L-89.915,-24.569ZM-95.913,-10.6C-94.089,-10.6 -92.907,-11.181 -91.974,-12.029C-91.706,-12.277 -91.519,-12.61 -91.519,-13.023C-91.519,-13.772 -92.1,-14.372 -92.846,-14.372C-93.219,-14.372 -93.529,-14.207 -93.694,-14.081C-94.297,-13.605 -94.939,-13.314 -95.767,-13.314C-97.488,-13.314 -98.586,-14.683 -98.586,-16.382L-98.586,-16.422C-98.586,-18.061 -97.467,-19.45 -95.892,-19.45C-95.063,-19.45 -94.482,-19.18 -93.924,-18.746C-93.737,-18.601 -93.425,-18.434 -93.012,-18.434C-92.224,-18.434 -91.581,-19.056 -91.581,-19.844C-91.581,-20.382 -91.871,-20.756 -92.079,-20.922C-93.012,-21.71 -94.194,-22.165 -95.872,-22.165C-99.271,-22.165 -101.696,-19.554 -101.696,-16.382L-101.696,-16.34C-101.696,-13.169 -99.25,-10.6 -95.913,-10.6M-106.721,-12.298C-106.721,-11.428 -106.015,-10.724 -105.144,-10.724C-104.273,-10.724 -103.57,-11.428 -103.57,-12.298L-103.57,-20.506C-103.57,-21.377 -104.273,-22.082 -105.144,-22.082C-106.015,-22.082 -106.721,-21.377 -106.721,-20.506L-106.721,-12.298ZM-106.906,-24.569C-106.906,-23.657 -106.138,-23.077 -105.144,-23.077C-104.148,-23.077 -103.382,-23.657 -103.382,-24.569L-103.382,-24.61C-103.382,-25.522 -104.148,-26.082 -105.144,-26.082C-106.138,-26.082 -106.906,-25.522 -106.906,-24.61L-106.906,-24.569ZM-119.227,-12.298C-119.227,-11.428 -118.521,-10.724 -117.65,-10.724C-116.781,-10.724 -116.075,-11.428 -116.075,-12.298L-116.075,-17.046C-116.075,-18.537 -115.308,-19.304 -114.106,-19.304C-112.903,-19.304 -112.2,-18.537 -112.2,-17.046L-112.2,-12.298C-112.2,-11.428 -111.494,-10.724 -110.624,-10.724C-109.754,-10.724 -109.049,-11.428 -109.049,-12.298L-109.049,-18.04C-109.049,-20.588 -110.437,-22.165 -112.821,-22.165C-114.418,-22.165 -115.351,-21.315 -116.075,-20.382L-116.075,-20.506C-116.075,-21.377 -116.781,-22.082 -117.65,-22.082C-118.521,-22.082 -119.227,-21.377 -119.227,-20.506L-119.227,-12.298ZM-121.493,-20.506C-121.493,-21.377 -122.197,-22.082 -123.068,-22.082C-123.938,-22.082 -124.644,-21.377 -124.644,-20.506L-124.644,-15.761C-124.644,-14.268 -125.411,-13.502 -126.612,-13.502C-127.813,-13.502 -128.52,-14.268 -128.52,-15.761L-128.52,-20.506C-128.52,-21.377 -129.224,-22.082 -130.096,-22.082C-130.965,-22.082 -131.67,-21.377 -131.67,-20.506L-131.67,-14.766C-131.67,-12.215 -130.281,-10.641 -127.897,-10.641C-126.302,-10.641 -125.368,-11.49 -124.644,-12.423L-124.644,-12.298C-124.644,-11.428 -123.938,-10.724 -123.068,-10.724C-122.197,-10.724 -121.493,-11.428 -121.493,-12.298L-121.493,-20.506ZM-148.694,-12.277C-148.694,-11.409 -148.01,-10.724 -147.14,-10.724C-146.27,-10.724 -145.564,-11.409 -145.564,-12.277L-145.564,-19.491L-142.808,-15.241C-142.476,-14.744 -142.062,-14.435 -141.481,-14.435C-140.901,-14.435 -140.486,-14.744 -140.155,-15.241L-137.356,-19.554L-137.356,-12.32C-137.356,-11.45 -136.652,-10.724 -135.781,-10.724C-134.89,-10.724 -134.185,-11.428 -134.185,-12.32L-134.185,-23.843C-134.185,-24.735 -134.89,-25.44 -135.781,-25.44L-136.134,-25.44C-136.777,-25.44 -137.232,-25.17 -137.564,-24.631L-141.44,-18.33L-145.294,-24.61C-145.586,-25.088 -146.062,-25.44 -146.746,-25.44L-147.098,-25.44C-147.989,-25.44 -148.694,-24.735 -148.694,-23.843L-148.694,-12.277ZM23.301,-37.935C22.821,-37.975 22.35,-37.916 21.912,-37.774C21.89,-37.769 21.869,-37.765 21.848,-37.761L21.847,-37.75C20.635,-37.331 19.671,-36.273 19.432,-34.92L11.971,7.089C11.846,7.551 11.824,9.351 13.434,9.457C14.868,9.553 16.333,9.549 18.319,9.598L20.385,9.598L29.276,9.51C37.833,9.222 45.954,3.601 47.585,-4.652L48.051,-7.017C49.717,-15.455 43.934,-21.696 35.202,-22.293C32.324,-22.491 29.297,-22.638 26.474,-21.204L27.694,-27.181L28.497,-30.963C29.07,-33.858 28.697,-35.877 27.378,-36.962C26.442,-37.731 25.04,-37.948 23.825,-37.948C23.646,-37.948 23.47,-37.943 23.301,-37.935" style="fill:#fff;"/>
    </g>
</svg>
