<?xml version="1.0" encoding="UTF-8" standalone="no"?>
<!DOCTYPE svg PUBLIC "-//W3C//DTD SVG 1.1//EN" "http://www.w3.org/Graphics/SVG/1.1/DTD/svg11.dtd">
<svg width="100%" height="100%" viewBox="0 0 1200 400" version="1.1" xmlns="http://www.w3.org/2000/svg" xmlns:xlink="http://www.w3.org/1999/xlink" xml:space="preserve" xmlns:serif="http://www.serif.com/" style="fill-rule:evenodd;clip-rule:evenodd;stroke-linejoin:round;stroke-miterlimit:2;">
    <g transform="matrix(4.166667,0,0,4.166667,-4.746458,-535.751458)">
        <g transform="matrix(1,0,0,1,51.8217,156.5025)">
            <path d="M0,15.304C0,15.847 0.444,16.292 0.963,16.292L5.999,16.292C11.429,16.292 15.181,12.515 15.181,7.653L15.181,7.602C15.181,2.74 11.429,-0.988 5.999,-0.988L0.963,-0.988C0.444,-0.988 0,-0.543 0,-0L0,15.304ZM1.95,14.49L1.95,0.815L5.999,0.815C10.367,0.815 13.157,3.826 13.157,7.653L13.157,7.702C13.157,11.528 10.367,14.49 5.999,14.49L1.95,14.49Z" style="fill:#fff;fill-rule:nonzero;"/>
        </g>
        <g transform="matrix(1,0,0,1,71.2973,156.379)">
            <path d="M0,15.551C0,16.094 0.444,16.539 0.963,16.539C1.505,16.539 1.95,16.094 1.95,15.551L1.95,0C1.95,-0.543 1.505,-0.988 0.963,-0.988C0.444,-0.988 0,-0.543 0,0L0,15.551Z" style="fill:#fff;fill-rule:nonzero;"/>
        </g>
        <g transform="matrix(1,0,0,1,78.308,156.503)">
            <path d="M0,15.427C0,15.97 0.444,16.415 0.963,16.415C1.506,16.415 1.95,15.97 1.95,15.427L1.95,9.577L6.912,9.577L11.774,15.896C11.997,16.192 12.293,16.415 12.688,16.415C13.182,16.415 13.675,15.97 13.675,15.451C13.675,15.181 13.552,14.958 13.354,14.737L9.059,9.207C11.75,8.688 13.675,7.035 13.675,4.197L13.675,4.146C13.675,2.789 13.182,1.579 12.342,0.74C11.256,-0.346 9.554,-0.988 7.431,-0.988L0.963,-0.988C0.444,-0.988 0,-0.544 0,0L0,15.427ZM1.95,7.825L1.95,0.814L7.282,0.814C10.071,0.814 11.701,2.098 11.701,4.22L11.701,4.27C11.701,6.492 9.85,7.825 7.257,7.825L1.95,7.825Z" style="fill:#fff;fill-rule:nonzero;"/>
        </g>
        <g transform="matrix(1,0,0,1,97.1186,155.5153)">
            <path d="M0,17.279L10.861,17.279C11.354,17.279 11.75,16.883 11.75,16.39C11.75,15.897 11.354,15.502 10.861,15.502L0.987,15.502L0.987,9.454L9.627,9.454C10.121,9.454 10.515,9.059 10.515,8.566C10.515,8.096 10.121,7.676 9.627,7.676L0.987,7.676L0.987,1.777L10.737,1.777C11.231,1.777 11.626,1.382 11.626,0.888C11.626,0.395 11.231,0 10.737,0L0,0C-0.519,0 -0.963,0.444 -0.963,0.987L-0.963,16.291C-0.963,16.835 -0.519,17.279 0,17.279" style="fill:#fff;fill-rule:nonzero;"/>
        </g>
        <g transform="matrix(1,0,0,1,120.5937,155.2187)">
            <path d="M0,17.872C2.839,17.872 4.714,16.884 6.417,15.329C6.591,15.181 6.738,14.934 6.738,14.638C6.738,14.144 6.295,13.7 5.8,13.7C5.554,13.7 5.332,13.824 5.183,13.972C3.702,15.329 2.196,16.07 0.049,16.07C-3.752,16.07 -6.64,12.935 -6.64,8.936L-6.64,8.886C-6.64,4.913 -3.776,1.802 0.049,1.802C2.172,1.802 3.678,2.592 5.011,3.777C5.159,3.876 5.38,3.999 5.652,3.999C6.171,3.999 6.64,3.555 6.64,3.036C6.64,2.691 6.443,2.419 6.245,2.247C4.641,0.913 2.863,0 0.074,0C-5.012,0 -8.665,4.048 -8.665,8.936L-8.665,8.986C-8.665,13.947 -4.986,17.872 0,17.872" style="fill:#fff;fill-rule:nonzero;"/>
        </g>
        <g transform="matrix(1,0,0,1,138.3173,155.2187)">
            <path d="M0,17.872C2.839,17.872 4.715,16.884 6.417,15.329C6.591,15.181 6.738,14.934 6.738,14.638C6.738,14.144 6.295,13.7 5.801,13.7C5.554,13.7 5.332,13.824 5.184,13.972C3.702,15.329 2.196,16.07 0.049,16.07C-3.752,16.07 -6.64,12.935 -6.64,8.936L-6.64,8.886C-6.64,4.913 -3.776,1.802 0.049,1.802C2.172,1.802 3.678,2.592 5.011,3.777C5.159,3.876 5.38,3.999 5.652,3.999C6.171,3.999 6.64,3.555 6.64,3.036C6.64,2.691 6.443,2.419 6.245,2.247C4.641,0.913 2.864,0 0.074,0C-5.012,0 -8.665,4.048 -8.665,8.936L-8.665,8.986C-8.665,13.947 -4.986,17.872 0,17.872" style="fill:#fff;fill-rule:nonzero;"/>
        </g>
        <g transform="matrix(1,0,0,1,148.8075,156.379)">
            <path d="M0,15.551C0,16.094 0.444,16.539 0.963,16.539C1.506,16.539 1.95,16.094 1.95,15.551L1.95,0C1.95,-0.543 1.506,-0.988 0.963,-0.988C0.444,-0.988 0,-0.543 0,0L0,15.551Z" style="fill:#fff;fill-rule:nonzero;"/>
        </g>
        <g transform="matrix(1,0,0,1,163.7914,169.5613)">
            <path d="M0,-15.725C0.469,-15.725 0.765,-15.798 1.161,-16.194L3.012,-17.947C3.21,-18.144 3.358,-18.316 3.358,-18.514C3.358,-18.86 2.617,-19.254 2.025,-19.254C1.654,-19.254 1.382,-19.057 1.136,-18.687L-0.345,-16.441C-0.419,-16.342 -0.469,-16.194 -0.469,-16.07C-0.469,-15.873 -0.271,-15.725 0,-15.725M0.05,3.529C5.307,3.529 8.887,-0.642 8.887,-5.406L8.887,-5.456C8.887,-10.22 5.357,-14.343 0.1,-14.343C-5.159,-14.343 -8.738,-10.171 -8.738,-5.406L-8.738,-5.357C-8.738,-0.593 -5.208,3.529 0.05,3.529M0.1,1.728C-3.85,1.728 -6.713,-1.481 -6.713,-5.406L-6.713,-5.456C-6.713,-9.381 -3.9,-12.54 0.05,-12.54C4,-12.54 6.863,-9.331 6.863,-5.406L6.863,-5.357C6.863,-1.433 4.049,1.728 0.1,1.728" style="fill:#fff;fill-rule:nonzero;"/>
        </g>
        <g transform="matrix(1,0,0,1,176.8002,156.3544)">
            <path d="M0,15.6C0,16.119 0.419,16.563 0.938,16.563C1.481,16.563 1.901,16.119 1.901,15.6L1.901,2.222L12.614,15.922C12.91,16.267 13.207,16.514 13.626,16.514L13.724,16.514C14.244,16.514 14.613,16.119 14.613,15.6L14.613,0C14.613,-0.519 14.194,-0.963 13.675,-0.963C13.131,-0.963 12.713,-0.519 12.713,0L12.713,13.033L2.221,-0.346C1.95,-0.692 1.678,-0.913 1.234,-0.913L0.963,-0.913C0.445,-0.913 0,-0.469 0,0.049L0,15.6Z" style="fill:#fff;fill-rule:nonzero;"/>
        </g>
        <g transform="matrix(1,0,0,1,203.707,156.5025)">
            <path d="M0,15.304C0,15.847 0.443,16.292 0.963,16.292L5.998,16.292C11.429,16.292 15.181,12.515 15.181,7.653L15.181,7.602C15.181,2.74 11.429,-0.988 5.998,-0.988L0.963,-0.988C0.443,-0.988 0,-0.543 0,-0L0,15.304ZM1.949,14.49L1.949,0.815L5.998,0.815C10.367,0.815 13.157,3.826 13.157,7.653L13.157,7.702C13.157,11.528 10.367,14.49 5.998,14.49L1.949,14.49Z" style="fill:#fff;fill-rule:nonzero;"/>
        </g>
        <g transform="matrix(1,0,0,1,223.9726,155.5153)">
            <path d="M0,17.279L10.861,17.279C11.354,17.279 11.75,16.883 11.75,16.39C11.75,15.897 11.354,15.502 10.861,15.502L0.987,15.502L0.987,9.454L9.627,9.454C10.121,9.454 10.515,9.059 10.515,8.566C10.515,8.096 10.121,7.676 9.627,7.676L0.987,7.676L0.987,1.777L10.738,1.777C11.231,1.777 11.627,1.382 11.627,0.888C11.627,0.395 11.231,0 10.738,0L0,0C-0.519,0 -0.963,0.444 -0.963,0.987L-0.963,16.291C-0.963,16.835 -0.519,17.279 0,17.279" style="fill:#fff;fill-rule:nonzero;"/>
        </g>
        <g transform="matrix(1,0,0,1,53.7655,181.45)">
            <path d="M0,21.043L11.814,21.043C12.957,21.043 13.888,20.142 13.888,18.998C13.888,17.856 12.957,16.924 11.814,16.924L2.285,16.924L2.285,12.506L10.312,12.506C11.454,12.506 12.385,11.603 12.385,10.461C12.385,9.318 11.454,8.387 10.312,8.387L2.285,8.387L2.285,4.117L11.665,4.117C12.806,4.117 13.738,3.216 13.738,2.073C13.738,0.932 12.806,0 11.665,0L0,0C-1.293,0 -2.315,1.022 -2.315,2.314L-2.315,18.728C-2.315,20.021 -1.293,21.043 0,21.043" style="fill:#fff;fill-rule:nonzero;"/>
        </g>
        <g transform="matrix(1,0,0,1,71.5922,183.7646)">
            <path d="M0,16.413C0,17.706 1.022,18.728 2.315,18.728L8.208,18.728C14.821,18.728 19.391,14.128 19.391,8.206L19.391,8.146C19.391,2.224 14.821,-2.315 8.208,-2.315L2.315,-2.315C1.022,-2.315 0,-1.293 0,0L0,16.413ZM4.63,14.549L4.63,1.863L8.208,1.863C11.995,1.863 14.55,4.478 14.55,8.206L14.55,8.267C14.55,11.994 11.995,14.549 8.208,14.549L4.63,14.549Z" style="fill:#fff;fill-rule:nonzero;"/>
        </g>
        <g transform="matrix(1,0,0,1,103.8793,181.2691)">
            <path d="M0,21.554C5.651,21.554 9.229,18.428 9.229,12.055L9.229,2.315C9.229,1.022 8.207,0 6.914,0C5.622,0 4.6,1.022 4.6,2.315L4.6,12.235C4.6,15.573 2.886,17.285 0.06,17.285C-2.766,17.285 -4.479,15.512 -4.479,12.085L-4.479,2.315C-4.479,1.022 -5.501,0 -6.794,0C-8.087,0 -9.109,1.022 -9.109,2.315L-9.109,12.204C-9.109,18.398 -5.652,21.554 0,21.554" style="fill:#fff;fill-rule:nonzero;"/>
        </g>
        <g transform="matrix(1,0,0,1,127.6879,181.0884)">
            <path d="M0,21.765C3.368,21.765 5.591,20.773 7.485,19.119C7.906,18.759 8.268,18.188 8.268,17.466C8.268,16.293 7.275,15.332 6.103,15.332C5.562,15.332 5.081,15.542 4.721,15.842C3.397,16.895 2.104,17.495 0.15,17.495C-3.457,17.495 -5.952,14.49 -5.952,10.882L-5.952,10.823C-5.952,7.214 -3.397,4.269 0.15,4.269C1.804,4.269 3.157,4.81 4.45,5.772C4.78,5.983 5.201,6.223 5.832,6.223C7.095,6.223 8.117,5.231 8.117,3.968C8.117,3.157 7.697,2.495 7.215,2.134C5.472,0.842 3.337,0 0.181,0C-6.283,0 -10.792,4.9 -10.792,10.882L-10.792,10.943C-10.792,16.985 -6.193,21.765 0,21.765" style="fill:#fff;fill-rule:nonzero;"/>
        </g>
        <g transform="matrix(1,0,0,1,138.5707,183.2837)">
            <path d="M0,17.224C0,18.427 0.932,19.389 2.134,19.389C3.097,19.389 3.878,18.848 4.269,17.947L5.742,14.49L15.001,14.49L16.414,17.796C16.835,18.758 17.557,19.389 18.639,19.389C19.871,19.389 20.833,18.398 20.833,17.164C20.833,16.865 20.743,16.564 20.593,16.233L13.257,-0.332C12.746,-1.473 11.845,-2.165 10.583,-2.165L10.312,-2.165C9.049,-2.165 8.117,-1.473 7.606,-0.332L0.271,16.233C0.12,16.564 0,16.894 0,17.224M7.455,10.401L10.372,3.455L13.288,10.401L7.455,10.401Z" style="fill:#fff;fill-rule:nonzero;"/>
        </g>
        <g transform="matrix(1,0,0,1,172.1503,181.0884)">
            <path d="M0,21.765C3.368,21.765 5.592,20.773 7.486,19.119C7.906,18.759 8.268,18.188 8.268,17.466C8.268,16.293 7.274,15.332 6.103,15.332C5.562,15.332 5.08,15.542 4.721,15.842C3.397,16.895 2.104,17.495 0.15,17.495C-3.457,17.495 -5.952,14.49 -5.952,10.882L-5.952,10.823C-5.952,7.214 -3.397,4.269 0.15,4.269C1.804,4.269 3.157,4.81 4.45,5.772C4.78,5.983 5.201,6.223 5.832,6.223C7.095,6.223 8.117,5.231 8.117,3.968C8.117,3.157 7.696,2.495 7.215,2.134C5.472,0.842 3.337,0 0.181,0C-6.283,0 -10.792,4.9 -10.792,10.882L-10.792,10.943C-10.792,16.985 -6.193,21.765 0,21.765" style="fill:#fff;fill-rule:nonzero;"/>
        </g>
        <g transform="matrix(1,0,0,1,184.6864,183.5833)">
            <path d="M0,16.775C0,18.068 1.022,19.089 2.315,19.089C3.607,19.089 4.63,18.068 4.63,16.775L4.63,0.001C4.63,-1.292 3.607,-2.314 2.315,-2.314C1.022,-2.314 0,-1.292 0,0.001L0,16.775Z" style="fill:#fff;fill-rule:nonzero;"/>
        </g>
        <g transform="matrix(1,0,0,1,204.7978,174.4744)">
            <path d="M0,28.379C6.493,28.379 11.214,23.479 11.214,17.496L11.214,17.437C11.214,11.454 6.554,6.614 0.061,6.614C-6.433,6.614 -11.153,11.514 -11.153,17.496L-11.153,17.557C-11.153,23.539 -6.493,28.379 0,28.379M0.061,24.109C-3.667,24.109 -6.312,21.104 -6.312,17.496L-6.312,17.437C-6.312,13.828 -3.728,10.883 0,10.883C3.729,10.883 6.374,13.889 6.374,17.496L6.374,17.557C6.374,21.164 3.788,24.109 0.061,24.109M-0.09,5.201C0.933,5.201 1.653,5.021 2.525,4.209L4.389,2.465C4.75,2.135 4.99,1.804 4.99,1.383C4.99,0.692 3.548,0 2.436,0C1.684,0 1.113,0.391 0.722,1.023L-0.932,3.607C-1.082,3.849 -1.232,4.149 -1.232,4.42C-1.232,4.9 -0.751,5.201 -0.09,5.201" style="fill:#fff;fill-rule:nonzero;"/>
        </g>
        <g transform="matrix(1,0,0,1,220.1298,183.5525)">
            <path d="M0,16.836C0,18.099 1.021,19.12 2.284,19.12C3.547,19.12 4.569,18.099 4.569,16.836L4.569,5.563L13.828,17.708C14.46,18.52 15.121,19.061 16.233,19.061L16.384,19.061C17.677,19.061 18.698,18.039 18.698,16.746L18.698,0.001C18.698,-1.262 17.677,-2.284 16.414,-2.284C15.151,-2.284 14.129,-1.262 14.129,0.001L14.129,10.854L5.2,-0.871C4.569,-1.683 3.908,-2.224 2.795,-2.224L2.314,-2.224C1.021,-2.224 0,-1.202 0,0.091L0,16.836Z" style="fill:#fff;fill-rule:nonzero;"/>
        </g>
    </g>
</svg>
