<?xml version="1.0" encoding="UTF-8"?>
<svg version="1.1" xmlns="http://www.w3.org/2000/svg" width="1619" height="495">
<path d="M0 0 C0.74327545 -0.00067474 1.4865509 -0.00134949 2.25234985 -0.00204468 C66.84883014 0.09030629 129.28441306 24.41731482 175.9375 69.25 C176.53208008 69.81734863 177.12666016 70.38469727 177.73925781 70.96923828 C186.62795158 79.49349102 194.6870425 88.2907392 201.9375 98.25 C202.33130859 98.78834473 202.72511719 99.32668945 203.13085938 99.88134766 C237.94613856 147.86170101 252.90321278 206.49689155 244.9375 265.25 C239.44513602 299.40032309 227.27376181 333.05198806 206.9375 361.25 C206.25300781 362.20777344 205.56851562 363.16554688 204.86328125 364.15234375 C191.57097541 382.31292678 175.98450966 399.7206871 157.9375 413.25 C157.31891113 413.72324707 156.70032227 414.19649414 156.06298828 414.68408203 C103.42164816 454.81733043 35.9816272 472.93170028 -29.80859375 465 C-58.90926829 461.03299248 -89.58622518 453.96285756 -115.11328125 438.8581543 C-120.74650914 437.10059284 -126.73327401 440.62426376 -131.81640625 442.86328125 C-132.66267075 443.22940018 -133.50893524 443.5955191 -134.38084412 443.97273254 C-136.19303374 444.75740742 -138.00395895 445.54500775 -139.8137207 446.33526611 C-144.53779329 448.39750944 -149.27157255 450.43727288 -154.00390625 452.48046875 C-155.41659286 453.09148437 -155.41659286 453.09148437 -156.8578186 453.71484375 C-164.61389334 457.06664002 -172.39080374 460.36520818 -180.1960144 463.60092163 C-182.03363 464.36302689 -183.86949184 465.12935642 -185.70532227 465.89575195 C-186.79256592 466.34523193 -187.87980957 466.79471191 -189 467.2578125 C-190.40572266 467.84006592 -190.40572266 467.84006592 -191.83984375 468.43408203 C-194.0625 469.25 -194.0625 469.25 -196.0625 469.25 C-194.09435469 462.43936808 -191.88410919 455.76106408 -189.4453125 449.10546875 C-188.93676224 447.70800163 -188.93676224 447.70800163 -188.41793823 446.28230286 C-187.70492286 444.32467989 -186.99055982 442.3675473 -186.27490234 440.41088867 C-185.19451388 437.45667872 -184.1183788 434.50094726 -183.04296875 431.54492188 C-182.34394233 429.62753404 -181.64472669 427.71021517 -180.9453125 425.79296875 C-180.60816223 424.86676727 -180.27101196 423.9405658 -179.92364502 422.98629761 C-178.46775555 419.00517504 -176.99665738 415.03708689 -175.40527344 411.10791016 C-174.93895508 409.95468262 -174.47263672 408.80145508 -173.9921875 407.61328125 C-173.58983887 406.65333252 -173.18749023 405.69338379 -172.77294922 404.7043457 C-171.98294608 401.97516991 -171.93145409 400.83519977 -173.0625 398.25 C-174.46552111 396.48356395 -174.46552111 396.48356395 -176.2734375 394.8515625 C-176.93585449 394.21460449 -177.59827148 393.57764648 -178.28076172 392.92138672 C-178.99248535 392.2460791 -179.70420898 391.57077148 -180.4375 390.875 C-187.1881246 384.29520142 -193.22968859 377.54048064 -198.81103516 369.95019531 C-200.05982441 368.25363496 -201.33137103 366.57604025 -202.60546875 364.8984375 C-209.3668934 355.86275107 -214.86346348 346.25267705 -220.0625 336.25 C-220.44792969 335.51716797 -220.83335938 334.78433594 -221.23046875 334.02929688 C-247.95014679 282.64179321 -252.1751025 221.23049982 -235.10620117 166.14648438 C-224.52398287 133.65480019 -207.50570653 103.50507007 -183.66308594 78.90185547 C-182.50429538 77.70594685 -181.35212968 76.50360722 -180.20410156 75.29736328 C-170.22668764 64.83732773 -159.87494686 55.58703053 -148.0625 47.25 C-147.42070801 46.79544434 -146.77891602 46.34088867 -146.11767578 45.87255859 C-110.86800462 21.14056824 -69.89953523 5.78292591 -27.0625 1.25 C-26.24869873 1.1571875 -25.43489746 1.064375 -24.59643555 0.96875 C-16.40999312 0.11432679 -8.22312353 0.00676498 0 0 Z M-157.0625 69.25 C-157.12081949 107.12792554 -157.12081949 107.12792554 -157.16015625 145.00585938 C-157.171999 160.46412491 -157.18588108 175.92236856 -157.21337891 191.38061523 C-157.23340047 202.6414181 -157.24623712 213.90220312 -157.25067699 225.16302329 C-157.25326961 231.11782118 -157.25930306 237.07256804 -157.27396011 243.02734947 C-157.287683 248.64892734 -157.29169339 254.27043387 -157.28871536 259.8920269 C-157.28925903 261.93922058 -157.29314786 263.98641701 -157.30091095 266.03359604 C-157.36198404 282.99183368 -156.67973552 300.06740617 -153.375 316.75 C-153.12290771 318.02689697 -153.12290771 318.02689697 -152.86572266 319.32958984 C-148.26416235 341.32109583 -139.51786185 361.91939282 -125.0625 379.25 C-124.09570312 380.44302734 -124.09570312 380.44302734 -123.109375 381.66015625 C-99.44350433 409.70325096 -61.84996352 421.3862229 -26.56176758 425.04663086 C18.90759187 428.74654064 71.22116473 425.53001863 108.5 396.0625 C110.33487138 394.48397095 112.14618146 392.87778525 113.9375 391.25 C114.45699219 390.77965332 114.97648437 390.30930664 115.51171875 389.82470703 C142.79180015 364.8044661 154.88217335 327.55077813 156.9375 291.25 C157.12157954 284.04295284 157.06406939 276.83104519 157.05102539 269.62231445 C157.050743 267.43352764 157.05090227 265.24474074 157.0514679 263.05595398 C157.05175384 257.13943032 157.04588992 251.22292709 157.03889394 245.30640817 C157.0326266 239.11379364 157.03205393 232.92117861 157.03086853 226.7285614 C157.02776517 215.01332125 157.01956521 203.29809048 157.00951904 191.58285445 C156.99832698 178.24065351 156.99283966 164.89845289 156.98782361 151.55624831 C156.97738175 124.12082582 156.95904866 96.68541617 156.9375 69.25 C126.2475 69.25 95.5575 69.25 63.9375 69.25 C63.92291748 75.88601318 63.90833496 82.52202637 63.89331055 89.35913086 C63.84292769 111.30773734 63.77647478 133.25627356 63.70178509 155.20481014 C63.65690081 168.50950349 63.61746925 181.81415123 63.59106445 195.11889648 C63.56802462 206.72104097 63.53456 218.32310162 63.48879844 229.92517954 C63.46494684 236.06316355 63.44616533 242.20106494 63.43988609 248.33909416 C63.43379864 254.12817564 63.41366774 259.91704596 63.38322449 265.70604897 C63.37450258 267.81940616 63.3707094 269.93279102 63.37249184 272.04616547 C63.38688675 297.01128893 60.29318781 323.06804605 42.35546875 342.02734375 C29.65151478 353.7051302 12.76918299 356.93803053 -3.97265625 356.49609375 C-17.11159691 355.86864612 -30.67359193 352.28499373 -40.48046875 343.05078125 C-54.48249344 327.11267413 -58.19689559 304.25333227 -58.22071838 283.6638031 C-58.22812535 282.28019477 -58.22812535 282.28019477 -58.23568195 280.86863476 C-58.25094816 277.80101535 -58.25938784 274.73341669 -58.26782227 271.66577148 C-58.27740936 269.45757365 -58.28741992 267.24937762 -58.29782104 265.04118347 C-58.32478613 259.06257983 -58.34584102 253.08396837 -58.36582303 247.10533786 C-58.38773454 240.85130317 -58.4150979 234.59729237 -58.44187927 228.34327698 C-58.48607523 217.85150207 -58.52692211 207.35971793 -58.56518555 196.86791992 C-58.60459341 186.06485028 -58.64604318 175.26179161 -58.69018555 164.45874023 C-58.69430981 163.44847718 -58.69430981 163.44847718 -58.69851738 162.41780478 C-58.72245453 156.55857268 -58.74654561 150.69934123 -58.77065182 144.84010983 C-58.87411735 119.64342777 -58.96747908 94.4467186 -59.0625 69.25 C-91.4025 69.25 -123.7425 69.25 -157.0625 69.25 Z " fill="#FDFDFD" transform="translate(1372.0625,-0.25)"/>
<path d="M0 0 C22.625625 -0.061875 45.25125 -0.12375 68.5625 -0.1875 C75.66209229 -0.21481201 82.76168457 -0.24212402 90.07641602 -0.27026367 C98.85925293 -0.28381348 98.85925293 -0.28381348 102.99278259 -0.28633118 C105.83184591 -0.28908541 108.6707347 -0.3001605 111.50975037 -0.31672668 C142.73550074 -0.49066414 178.81117761 -0.65456458 202.84765625 22.58203125 C215.49308553 36.78805797 216.77909487 52.11354209 216.17919922 70.34619141 C215.83393253 75.45933704 214.45308223 79.54754041 212 84 C211.59910156 84.81855469 211.19820312 85.63710937 210.78515625 86.48046875 C205.00717077 97.28278943 195.81611995 105.43943508 185 111 C186.03898438 111.4846875 187.07796875 111.969375 188.1484375 112.46875 C204.79481425 120.39312101 217.39415185 130.25353497 224.0703125 148.1640625 C230.04453872 166.38796265 228.22585563 187.79562725 220.45703125 205.2109375 C218.06311858 209.79338696 215.161413 213.9191604 212 218 C211.37867188 218.82886719 210.75734375 219.65773438 210.1171875 220.51171875 C193.59733576 239.92711646 164.34682481 244.81560038 140.41259003 246.78237724 C134.62914113 247.15119098 128.85473897 247.13033166 123.06152344 247.11352539 C121.68837614 247.11321822 120.31522868 247.11335397 118.94208145 247.11389065 C115.30250946 247.11411415 111.66297111 247.10836641 108.02340698 247.10128021 C104.59389147 247.09553703 101.16438367 247.09531449 97.73486328 247.09460449 C87.73990449 247.08938084 77.74495181 247.07541958 67.75 247.0625 C45.3925 247.041875 23.035 247.02125 0 247 C0 165.49 0 83.98 0 0 Z M69 51 C69 66.18 69 81.36 69 97 C76.63177432 97.06912375 84.26244841 97.12878436 91.89428711 97.16479492 C94.48677261 97.17981774 97.07923298 97.20024186 99.67163086 97.22631836 C103.41266105 97.26298808 107.15335319 97.27979212 110.89453125 97.29296875 C112.04081497 97.30845261 113.18709869 97.32393646 114.36811829 97.33988953 C123.91907341 97.34185641 133.42124178 96.31563185 141 90 C145.86300221 84.91595224 148.02443708 80.62252832 148.3125 73.625 C148.14129172 66.84515226 145.90941866 60.77673167 141 56 C135.43336033 52.6645236 130.59153286 50.87300715 124.05981445 50.88647461 C122.83877518 50.88655014 121.6177359 50.88662567 120.35969543 50.88670349 C119.04087875 50.89186478 117.72206207 50.89702606 116.36328125 50.90234375 C114.99993441 50.9042092 113.63658689 50.9056325 112.27323914 50.90663147 C108.68771509 50.91044668 105.10223165 50.92026845 101.51672363 50.93133545 C97.8568579 50.94157099 94.19698541 50.94618849 90.53710938 50.95117188 C83.35803707 50.96136074 76.17907623 50.98093488 69 51 Z M69 139 C69 157.15 69 175.3 69 194 C80.30857157 194.08740417 80.30857157 194.08740417 91.6171875 194.14648438 C96.23643463 194.16434758 100.85550165 194.18537166 105.47460938 194.22631836 C109.20289191 194.25915757 112.93098101 194.27690416 116.65939713 194.28463173 C118.07461716 194.29013155 119.48982783 194.30087012 120.90496445 194.31719017 C133.02447047 194.45127051 143.60320424 193.26534484 153 185 C158.89876923 177.32508202 158.84037517 168.23943207 158 159 C156.67354398 153.18277119 153.82967816 148.93627783 149.12890625 145.28125 C141.68445737 140.80092113 133.34676504 138.86894753 124.7409668 138.88647461 C123.50005783 138.88655014 122.25914886 138.88662567 120.9806366 138.88670349 C119.63683023 138.89180928 118.29302429 138.89702526 116.94921875 138.90234375 C115.56631013 138.90421035 114.18340085 138.90563311 112.80049133 138.90663147 C109.17225294 138.91043763 105.544055 138.92025157 101.91583252 138.93133545 C98.20886797 138.94159055 94.50189665 138.94619275 90.79492188 138.95117188 C83.52991227 138.96134411 76.26501353 138.98092059 69 139 Z " fill="#FDFDFD" transform="translate(828,82)"/>
<path d="M0 0 C35.5471875 -0.0928125 35.5471875 -0.0928125 71.8125 -0.1875 C79.26175049 -0.21481201 86.71100098 -0.24212402 94.38598633 -0.27026367 C103.56774902 -0.28381348 103.56774902 -0.28381348 107.88261414 -0.28633118 C110.86018244 -0.28909679 113.83758602 -0.3002198 116.81510925 -0.31672668 C147.37761327 -0.47852175 179.86395227 0.53532066 204 22 C204.67417969 22.56976563 205.34835937 23.13953125 206.04296875 23.7265625 C217.71299569 34.3356779 223.35609099 49.20428481 224.375 64.67578125 C225.10515013 83.38587821 219.98242855 101.84996504 207.875 116.4375 C202.03885476 122.45730016 194.00229222 128.33256926 186 131 C186.83402344 131.40089844 187.66804687 131.80179688 188.52734375 132.21484375 C203.96066195 140.01105604 211.67227047 150.60754006 217.31640625 166.76953125 C220.52947538 177.90263794 221.5935727 189.23915104 222.421875 200.74609375 C223.12961344 210.45021662 223.92054948 220.0177295 225.875 229.5625 C226.02437012 230.31708496 226.17374023 231.07166992 226.32763672 231.84912109 C227.43817152 236.86528288 229.35227367 240.60743309 232 245 C232 245.66 232 246.32 232 247 C209.56 247 187.12 247 164 247 C161.11778581 240.51501808 159.29812846 235.97167089 158.4375 229.25 C158.31947021 228.41654053 158.20144043 227.58308105 158.07983398 226.72436523 C157.35528713 221.39647633 156.79802607 216.05951531 156.2890625 210.70703125 C156.16732666 209.4427832 156.04559082 208.17853516 155.92016602 206.87597656 C155.68782606 204.398741 155.46879755 201.92020781 155.26538086 199.44042969 C154.03149945 185.99512063 151.07339059 172.70309492 140.375 163.625 C131.63380114 157.79497691 120.9769206 157.54472377 110.796875 157.48828125 C109.72775879 157.47164429 108.65864258 157.45500732 107.55712891 157.43786621 C103.62161262 157.38069807 99.68577163 157.34797292 95.75 157.3125 C86.9225 157.209375 78.095 157.10625 69 157 C69 186.7 69 216.4 69 247 C46.23 247 23.46 247 0 247 C0 165.49 0 83.98 0 0 Z M69 52 C69 70.15 69 88.3 69 107 C76.64349308 107.04207427 84.28656059 107.08212968 91.93006897 107.10350037 C95.49037694 107.11401078 99.05058787 107.12802907 102.61083984 107.15087891 C106.70671466 107.17699843 110.80248856 107.18651545 114.8984375 107.1953125 C116.78965836 107.21079636 116.78965836 107.21079636 118.71908569 107.22659302 C130.23459462 107.22804206 139.66475099 106.18096078 149 99 C155.86495984 90.76204819 155.81321927 81.17038785 155 71 C153.44698166 64.78792666 149.37950613 60.33252493 144 57 C136.49295414 53.58473059 129.25084719 51.86844793 120.99462891 51.88647461 C119.25350327 51.88658791 119.25350327 51.88658791 117.47720337 51.88670349 C116.23949188 51.89186478 115.0017804 51.89702606 113.7265625 51.90234375 C112.44768158 51.9037587 111.16880066 51.90517365 109.85116577 51.90663147 C106.46788664 51.91126978 103.08467614 51.92023919 99.70141602 51.93133545 C96.24235637 51.94160485 92.78328939 51.94619586 89.32421875 51.95117188 C82.54944077 51.96133201 75.77478223 51.98091013 69 52 Z " fill="#FDFDFD" transform="translate(297,82)"/>
<path d="M0 0 C22.77 0 45.54 0 69 0 C69.03738281 11.24320313 69.07476563 22.48640625 69.11328125 34.0703125 C69.14356883 41.20704342 69.17460137 48.34375833 69.20898438 55.48046875 C69.26338116 66.79995241 69.31479797 78.11939163 69.34643555 89.43896484 C69.36949557 97.68456493 69.40298215 105.93004746 69.44870156 114.17555416 C69.4725264 118.5366613 69.49132521 122.89765279 69.49761391 127.25882339 C69.50371379 131.37437222 69.52388766 135.48962553 69.55427551 139.60506439 C69.56297796 141.10529137 69.56679476 142.6055571 69.56500816 144.10580826 C69.55390061 157.75247082 70.32215525 173.28052205 79.78515625 184.02734375 C90.19775103 193.81890902 103.27627222 195.48498563 117.08984375 195.24609375 C128.51940861 194.52675051 139.47558897 192.58102197 147.80078125 184.18359375 C153.34061128 177.37908788 156.03513897 169.26536659 157.5078125 160.71484375 C157.75144531 159.86599609 157.75144531 159.86599609 158 159 C160.52140408 157.73929796 162.73990622 157.54403759 165.5390625 157.16796875 C167.23446167 156.93327881 167.23446167 156.93327881 168.96411133 156.69384766 C170.17220459 156.52675293 171.38029785 156.3596582 172.625 156.1875 C191.63824685 153.44085108 208.71414503 149.64844364 225 139 C225.66 139 226.32 139 227 139 C227.75727865 169.24842762 224.43331934 199.71114594 203 223 C185.91285092 240.76521055 163.03500585 248.2684465 139 251 C138.18378174 251.0935376 137.36756348 251.1870752 136.52661133 251.28344727 C100.75950792 254.96771064 60.09659332 252.26192026 31 229 C10.45357267 211.53257619 2.91344458 186.16105836 0.64377022 160.16100216 C-0.45729142 145.92633695 -0.25412065 131.64531572 -0.20278788 117.37857556 C-0.1900817 113.23602822 -0.18909467 109.0934763 -0.18673706 104.95091248 C-0.1805796 97.14597168 -0.16424852 89.3410885 -0.14403808 81.53617281 C-0.11726364 70.9614171 -0.10665998 60.38664507 -0.09503365 49.8118639 C-0.07636209 33.2078663 -0.03647892 16.60399017 0 0 Z " fill="#FDFDFD" transform="translate(557,82)"/>
<path d="M0 0 C0.05607422 1.77890625 0.05607422 1.77890625 0.11328125 3.59375 C0.95492499 25.84181616 4.49250927 50.20496509 21.70703125 66.1875 C35.29313528 76.92677133 49.97763502 79.95651166 67 79 C78.61830339 77.5114443 90.7157393 73.66957515 99 65 C106.27638186 55.53909732 109.32698182 45.71112725 111 34 C133.77 34 156.54 34 180 34 C177.94831467 62.72359456 168.77625379 88.21917041 146.84765625 107.91796875 C118.99912351 131.58117287 81.69747509 138.46430136 46.10400391 135.78173828 C18.8136047 133.04644902 -6.01094057 122.70835387 -27 105 C-27.91845703 104.28263672 -27.91845703 104.28263672 -28.85546875 103.55078125 C-34.41653452 99.10956396 -38.67100059 93.61223853 -43 88 C-43.8971875 86.84371094 -43.8971875 86.84371094 -44.8125 85.6640625 C-57.00754157 69.12171444 -67.59634051 46.87191792 -67 26 C-63.18394939 24.36352886 -59.4046899 23.2998187 -55.375 22.3125 C-37.91892742 17.79627395 -20.64112758 10.86510004 -5.078125 1.73046875 C-2 0 -2 0 0 0 Z " fill="#FDFDFD" transform="translate(82,198)"/>
<path d="M0 0 C0.65881165 -0.00233643 1.31762329 -0.00467285 1.99639893 -0.00708008 C12.80234715 -0.0215182 23.03431111 0.85333911 33.5625 3.25 C36.47567201 11.98951603 32.19674607 23.69144076 28.28344727 31.59838867 C26.5746279 34.79596449 24.75303478 37.91289144 22.87255859 41.01220703 C21.61878425 43.15385735 20.53336896 45.3238379 19.45703125 47.55859375 C17.40863052 51.45584165 15.4542282 54.98175043 11.5625 57.25 C5.16196971 58.66944088 -1.45109782 57.8437082 -7.92822266 57.36425781 C-18.9103746 56.86419485 -30.00563585 62.78463306 -38.26953125 69.578125 C-47.9327563 78.79223464 -55.42657236 91.15221145 -56.78125 104.68359375 C-57.22797824 108.99350593 -57.61237919 112.62767039 -61.00195312 115.640625 C-66.12552276 119.18490512 -71.7812063 121.68720882 -77.4375 124.25 C-79.10674623 125.04942132 -80.7747278 125.85148894 -82.44140625 126.65625 C-113.21132482 141.25 -113.21132482 141.25 -128.4375 141.25 C-135.92367964 117.94624724 -125.02169041 85.13954376 -114.4375 64.25 C-99.50013237 36.9730678 -74.22191386 15.53458546 -44.4375 6.25 C-29.4780226 2.04077169 -15.54223771 0.03902633 0 0 Z " fill="#FDFDFD" transform="translate(142.4375,76.75)"/>
<path d="M0 0 C22.44 0 44.88 0 68 0 C68.40303034 32.8201042 68.40303034 32.8201042 68.48828125 46.58007812 C68.5476058 56.07908144 68.61731911 65.57719738 68.75439453 75.07543945 C68.85418316 81.99330993 68.91860828 88.91046025 68.94088495 95.82903045 C68.95390479 99.49160336 68.98441085 103.15211645 69.05730057 106.81402779 C69.1380934 110.90631874 69.13989265 114.99504869 69.13525391 119.08813477 C69.17120667 120.29726532 69.20715942 121.50639587 69.24420166 122.75216675 C69.1454246 130.80206263 69.1454246 130.80206263 65.81443405 134.28576469 C63.27864861 136.09026442 60.77114373 137.58953101 58 139 C56.90171875 139.61230469 55.8034375 140.22460938 54.671875 140.85546875 C37.83155707 148.53267251 18.55756344 153 0 153 C0 102.51 0 52.02 0 0 Z " fill="#FDFDFD" transform="translate(716,82)"/>
<path d="M0 0 C19.37260213 4.3095831 37.91479423 14.0248349 52 28 C52.86625 28.825 53.7325 29.65 54.625 30.5 C55.800625 31.7375 55.800625 31.7375 57 33 C57.59167969 33.59683594 58.18335938 34.19367188 58.79296875 34.80859375 C72.6970331 49.46568286 80 68.92421083 80 89 C57.23 89 34.46 89 11 89 C10.01 85.37 9.02 81.74 8 78 C2.71240772 65.83853776 -5.40700662 59.49911879 -17.6875 54.5625 C-19.12064717 54.0298061 -20.55655087 53.5041113 -22 53 C-20.00114552 49.46356515 -17.98726191 45.94785427 -15.8515625 42.4921875 C-7.25894755 28.58787832 -2.08048296 16.26061678 0 0 Z " fill="#FDFDFD" transform="translate(182,82)"/>
<path d="M0 0 C84.81 0 169.62 0 257 0 C257 1.98 257 3.96 257 6 C172.19 6 87.38 6 0 6 C0 4.02 0 2.04 0 0 Z " fill="#FDFDFD" transform="translate(819,466)"/>
<path d="M0 0 C84.81 0 169.62 0 257 0 C257 1.98 257 3.96 257 6 C172.19 6 87.38 6 0 6 C0 4.02 0 2.04 0 0 Z " fill="#FDFDFD" transform="translate(6,466)"/>
<path d="M0 0 C4.99125 -0.061875 9.9825 -0.12375 15.125 -0.1875 C16.68879395 -0.21481201 18.25258789 -0.24212402 19.86376953 -0.27026367 C21.10755371 -0.27775635 22.35133789 -0.28524902 23.6328125 -0.29296875 C24.90012207 -0.3086792 26.16743164 -0.32438965 27.47314453 -0.34057617 C31.34944957 0.03374513 33.71295564 0.94085374 37 3 C39.81858077 7.22787116 39.68030098 11.03222076 39 16 C37 19.125 37 19.125 35 21 C35.78375 21.7425 36.5675 22.485 37.375 23.25 C40.12732409 26.13338715 41.86667946 28.1198386 42.15234375 32.1484375 C41.58641185 38.01354991 40.34221831 40.95384203 36 45 C31.86546851 47.14032446 28.34535524 47.2332951 23.73046875 47.1953125 C22.48418701 47.19031738 21.23790527 47.18532227 19.95385742 47.18017578 C17.5945105 47.15286377 17.5945105 47.15286377 15.1875 47.125 C7.6696875 47.063125 7.6696875 47.063125 0 47 C0 31.49 0 15.98 0 0 Z M11 9 C11 12.3 11 15.6 11 19 C12.91635217 19.05423638 14.83314925 19.09289963 16.75 19.125 C17.81734375 19.14820313 18.8846875 19.17140625 19.984375 19.1953125 C22.95306394 19.0030399 24.56646555 18.66984917 27 17 C28.08024658 14.59889783 28.08024658 14.59889783 28 12 C27.00853433 10.20259412 27.00853433 10.20259412 25 9 C21.56919882 8.63601382 21.56919882 8.63601382 17.8125 8.8125 C15.90404297 8.85310547 15.90404297 8.85310547 13.95703125 8.89453125 C12.98121094 8.92933594 12.00539063 8.96414063 11 9 Z M11 27 C11 30.63 11 34.26 11 38 C13.60478883 38.0809313 16.20706653 38.14045434 18.8125 38.1875 C19.55048828 38.21263672 20.28847656 38.23777344 21.04882812 38.26367188 C25.25979218 38.36392829 25.25979218 38.36392829 28.98828125 36.64453125 C30.44627981 34.27457992 30.40905458 32.72703052 30 30 C29.04402568 28.19514239 29.04402568 28.19514239 27 27 C24.18872957 26.78285759 21.6116655 26.71715724 18.8125 26.8125 C17.68811523 26.83280273 17.68811523 26.83280273 16.54101562 26.85351562 C14.69370233 26.88881461 12.84675934 26.94262083 11 27 Z " fill="#FCFCFC" transform="translate(435,447)"/>
<path d="M0 0 C4.57875 -0.103125 9.1575 -0.20625 13.875 -0.3125 C16.0094458 -0.38078003 16.0094458 -0.38078003 18.18701172 -0.45043945 C26.10124492 -0.53618712 32.53698573 0.10854671 39 5 C45.12652582 12.37035424 45.64596157 19.65117436 45 29 C43.85772181 35.00820337 41.92669087 39.16812932 37 43 C29.55383949 47.87728005 22.70096331 47.46985887 14 47.25 C9.38 47.1675 4.76 47.085 0 47 C0 31.49 0 15.98 0 0 Z M12 9 C12 18.57 12 28.14 12 38 C21.54830318 38.31796689 21.54830318 38.31796689 30 35 C33.72318599 30.22966795 33.69928568 24.81163095 33 19 C31.47140906 14.79637492 29.90053244 12.2457611 26 10 C21.0702801 8.59577396 21.0702801 8.59577396 12 9 Z " fill="#FCFCFC" transform="translate(291,447)"/>
<path d="M0 0 C5.15625 -0.061875 10.3125 -0.12375 15.625 -0.1875 C17.24100098 -0.21481201 18.85700195 -0.24212402 20.52197266 -0.27026367 C22.44855713 -0.28150269 22.44855713 -0.28150269 24.4140625 -0.29296875 C25.7232666 -0.3086792 27.0324707 -0.32438965 28.38134766 -0.34057617 C33.02147769 0.09613827 36.34091341 1.51254305 39.8125 4.625 C41.65209137 8.30418274 42.12806519 11.90191396 42 16 C40.61760462 19.73246753 39.02616077 22.40614791 36 25 C36.62390625 25.49242187 37.2478125 25.98484375 37.890625 26.4921875 C40.65299866 29.77634285 41.12374912 33.00647948 41.75 37.125 C41.93755859 38.21748047 41.93755859 38.21748047 42.12890625 39.33203125 C43 44.51073146 43 44.51073146 43 47 C39.04 47 35.08 47 31 47 C30.81824219 45.94039063 30.63648438 44.88078125 30.44921875 43.7890625 C30.1959766 42.40092035 29.94203383 41.01290588 29.6875 39.625 C29.56955078 38.92632812 29.45160156 38.22765625 29.33007812 37.5078125 C28.98201011 35.65144974 28.49747273 33.82201946 28 32 C24.47844036 29.65229357 22.49228157 29.62330386 18.3125 29.375 C15.1878125 29.189375 15.1878125 29.189375 12 29 C12 34.94 12 40.88 12 47 C8.04 47 4.08 47 0 47 C0 31.49 0 15.98 0 0 Z M12 9 C12 12.96 12 16.92 12 21 C14.08304538 21.05418326 16.16649768 21.09287551 18.25 21.125 C19.41015625 21.14820313 20.5703125 21.17140625 21.765625 21.1953125 C24.85452956 21.00878445 26.52777615 20.82319134 29 19 C30.08333333 15.58333333 30.08333333 15.58333333 30 12 C29.06115011 10.1305752 29.06115011 10.1305752 27 9 C24.35003674 8.7827899 21.94923442 8.71648446 19.3125 8.8125 C18.61060547 8.82603516 17.90871094 8.83957031 17.18554688 8.85351562 C15.45670171 8.88879818 13.72825235 8.94260417 12 9 Z " fill="#FCFCFC" transform="translate(742,447)"/>
<path d="M0 0 C6.60282359 4.18324585 10.00584378 9.52012064 11.90625 17.03125 C13.36140628 24.50105223 12.1060076 31.96239098 8.12109375 38.4921875 C4.67134642 42.87252063 0.82740773 46.05393107 -4.625 47.4375 C-12.08746613 48.18374661 -20.43207521 48.92741593 -27.01953125 44.75390625 C-34.27802874 38.80229152 -37.00599672 32.21486398 -38 22.9375 C-37.00599672 13.66013602 -34.27802874 7.07270848 -27.01953125 1.12109375 C-19.9358133 -3.36682468 -7.57704869 -3.37895415 0 0 Z M-22.875 12.875 C-25.91007659 17.31921929 -25.98813992 21.08118616 -25.625 26.4375 C-24.0918092 30.96041285 -22.62935379 34.69767899 -18.625 37.4375 C-14.3919206 38.58908821 -10.92228883 38.95641553 -6.8125 37.3125 C-3.24033862 34.25064739 -0.19156716 31.25332082 0.375 26.4375 C0.8654119 19.93954227 -0.57919972 15.42751579 -4.25 10.0625 C-11.08228222 5.38778059 -17.53843227 7.0937183 -22.875 12.875 Z " fill="#FBFBFB" transform="translate(527.625,447.5625)"/>
<path d="M0 0 C12.54 0 25.08 0 38 0 C38 2.97 38 5.94 38 9 C29.42 9 20.84 9 12 9 C12 11.97 12 14.94 12 18 C12.69150146 17.99476318 13.38300293 17.98952637 14.09545898 17.98413086 C17.20946352 17.963425 20.32345361 17.95036037 23.4375 17.9375 C24.52611328 17.92912109 25.61472656 17.92074219 26.73632812 17.91210938 C27.77080078 17.90888672 28.80527344 17.90566406 29.87109375 17.90234375 C30.82943115 17.89710693 31.78776855 17.89187012 32.77514648 17.88647461 C35 18 35 18 36 19 C36 21.64 36 24.28 36 27 C28.08 27 20.16 27 12 27 C12 30.63 12 34.26 12 38 C20.58 38 29.16 38 38 38 C38 40.97 38 43.94 38 47 C25.46 47 12.92 47 0 47 C0 31.49 0 15.98 0 0 Z " fill="#FCFCFC" transform="translate(352,447)"/>
<path d="M0 0 C10 0 10 0 12.41015625 1.9140625 C12.95542969 2.80867188 13.50070312 3.70328125 14.0625 4.625 C15.00802734 6.10806641 15.00802734 6.10806641 15.97265625 7.62109375 C16.64167969 8.73613281 17.31070313 9.85117187 18 11 C19.20747496 12.8782406 20.42963167 14.74630262 21.65405273 16.61352539 C23.458758 19.39440172 25.22556134 22.19971399 27 25 C27.33 16.75 27.66 8.5 28 0 C31.3 0 34.6 0 38 0 C38 14.19 38 28.38 38 43 C34.37 43 30.74 43 27 43 C24.13529585 40.0000793 22.5155014 37.88876821 20.5625 34.375 C20.07330078 33.56675781 19.58410156 32.75851562 19.08007812 31.92578125 C18.16202099 30.40598277 17.26012 28.87620356 16.38110352 27.33349609 C14.69692499 24.48792807 12.83418099 21.75127148 11 19 C10.67 26.92 10.34 34.84 10 43 C6.7 43 3.4 43 0 43 C0 28.81 0 14.62 0 0 Z " fill="#FCFCFC" transform="translate(664,370)"/>
<path d="M0 0 C3.63 0 7.26 0 11 0 C13.54825614 2.65919174 14.74358789 4.26858023 16.3125 7.4375 C17.07761872 8.83302424 17.84456308 10.22754901 18.61328125 11.62109375 C19.40089844 13.06613281 20.18851562 14.51117188 21 16 C22.98 18.97 24.96 21.94 27 25 C27.33 16.75 27.66 8.5 28 0 C31.3 0 34.6 0 38 0 C38 14.19 38 28.38 38 43 C27 43 27 43 23.94921875 40.03515625 C23.15479935 38.73483793 22.40117058 37.40882991 21.6875 36.0625 C20.92102259 34.76145373 20.15408987 33.4606756 19.38671875 32.16015625 C18.59910156 30.78730469 17.81148438 29.41445313 17 28 C15.02 25.03 13.04 22.06 11 19 C10.67 26.92 10.34 34.84 10 43 C6.7 43 3.4 43 0 43 C0 28.81 0 14.62 0 0 Z " fill="#FCFCFC" transform="translate(477,370)"/>
<path d="M0 0 C11 0 11 0 13.7175293 2.203125 C14.33023682 3.20859375 14.94294434 4.2140625 15.57421875 5.25 C16.26064453 6.3328125 16.94707031 7.415625 17.65429688 8.53125 C18.33290091 9.68698981 19.01062474 10.84324686 19.6875 12 C20.40459268 13.15849262 21.12526807 14.31477568 21.84960938 15.46875 C23.60169209 18.29089665 25.30566821 21.14280813 27 24 C27.33 16.08 27.66 8.16 28 0 C31.3 0 34.6 0 38 0 C38 14.19 38 28.38 38 43 C27 43 27 43 24.2824707 40.70507812 C23.66976318 39.65771484 23.05705566 38.61035156 22.42578125 37.53125 C21.91642281 36.69889832 21.91642281 36.69889832 21.39677429 35.84973145 C20.32954156 34.0865811 19.3218391 32.29679243 18.3125 30.5 C17.59548768 29.29337208 16.87481416 28.0889118 16.15039062 26.88671875 C14.39752922 23.94567612 12.69386086 20.9754143 11 18 C10.67 26.25 10.34 34.5 10 43 C6.7 43 3.4 43 0 43 C0 28.81 0 14.62 0 0 Z " fill="#FCFCFC" transform="translate(87,370)"/>
<path d="M0 0 C4.29 0 8.58 0 13 0 C23.81396994 26.39938411 23.81396994 26.39938411 28.1875 37.5625 C28.47826416 38.29839355 28.76902832 39.03428711 29.06860352 39.79248047 C31 44.7602983 31 44.7602983 31 47 C27.04 47 23.08 47 19 47 C17.68 44.03 16.36 41.06 15 38 C9.06 37.67 3.12 37.34 -3 37 C-3.309375 38.464375 -3.61875 39.92875 -3.9375 41.4375 C-4.875 45.875 -4.875 45.875 -6 47 C-8.01964199 47.07244053 -10.04167124 47.08377188 -12.0625 47.0625 C-13.16722656 47.05347656 -14.27195312 47.04445313 -15.41015625 47.03515625 C-16.69212891 47.01775391 -16.69212891 47.01775391 -18 47 C-15.73528607 38.4899401 -12.42104556 30.46859275 -9 22.375 C-4.31331592 11.26176156 -4.31331592 11.26176156 0 0 Z M6 13 C4.35 17.95 2.7 22.9 1 28 C4.63 28 8.26 28 12 28 C10.35 23.05 8.7 18.1 7 13 C6.67 13 6.34 13 6 13 Z " fill="#FCFCFC" transform="translate(698,447)"/>
<path d="M0 0 C6.4659375 -0.0928125 6.4659375 -0.0928125 13.0625 -0.1875 C14.40836182 -0.21481201 15.75422363 -0.24212402 17.14086914 -0.27026367 C24.39289442 -0.32062872 30.17560572 -0.31447504 35.875 4.625 C37.61893065 8.30663138 38.13813571 11.93590212 38 16 C36.6875 18.875 36.6875 18.875 35 21 C34.34 21.99 33.68 22.98 33 24 C33.66 24 34.32 24 35 24 C37.26169766 27.68713736 37.63948566 31.539556 38.125 35.75 C38.21136719 36.44738281 38.29773438 37.14476562 38.38671875 37.86328125 C38.59771846 39.57472332 38.79975501 41.28726629 39 43 C35.37 43 31.74 43 28 43 C27.87882812 42.16855469 27.75765625 41.33710938 27.6328125 40.48046875 C27.46523437 39.39378906 27.29765625 38.30710937 27.125 37.1875 C26.96257812 36.10855469 26.80015625 35.02960938 26.6328125 33.91796875 C26.14867662 30.82678207 26.14867662 30.82678207 24 28 C19.67503241 27.27175996 15.38952129 27.21517261 11 27 C11 32.28 11 37.56 11 43 C7.37 43 3.74 43 0 43 C0 28.81 0 14.62 0 0 Z M11 8 C11 11.63 11 15.26 11 19 C13.29141286 19.05384521 15.58318188 19.09272087 17.875 19.125 C19.15117187 19.14820313 20.42734375 19.17140625 21.7421875 19.1953125 C25.08593338 19.35641524 25.08593338 19.35641524 27 17 C27.33333333 14 27.33333333 14 27 11 C24.2656934 8.2656934 22.23006445 8.04659335 18.421875 7.90234375 C17.09929687 7.91974609 17.09929687 7.91974609 15.75 7.9375 C13.39875 7.9684375 13.39875 7.9684375 11 8 Z " fill="#FCFCFC" transform="translate(170,370)"/>
<path d="M0 0 C2.4065344 2.20598986 3.54952508 4.39352679 4.59375 7.4609375 C4.59375 8.7809375 4.59375 10.1009375 4.59375 11.4609375 C1.29375 11.4609375 -2.00625 11.4609375 -5.40625 11.4609375 C-6.06625 10.1409375 -6.72625 8.8209375 -7.40625 7.4609375 C-10.63622339 5.15381365 -13.52029618 4.91690397 -17.40625 5.4609375 C-20.83390324 7.52866335 -23.11334412 9.58221985 -24.40625 13.4609375 C-24.81438605 18.09171188 -24.97433336 22.16246125 -23.09375 26.4609375 C-21.08831237 28.83775247 -19.41583199 30.30104054 -16.28515625 30.796875 C-11.26190451 30.93220047 -11.26190451 30.93220047 -6.90625 28.6484375 C-5.24798345 26.44564642 -5.24798345 26.44564642 -4.40625 23.4609375 C-7.37625 23.4609375 -10.34625 23.4609375 -13.40625 23.4609375 C-13.40625 20.8209375 -13.40625 18.1809375 -13.40625 15.4609375 C-7.13625 15.4609375 -0.86625 15.4609375 5.59375 15.4609375 C5.59375 23.3809375 5.59375 31.3009375 5.59375 39.4609375 C3.28375 39.4609375 0.97375 39.4609375 -1.40625 39.4609375 C-2.06625 38.8009375 -2.72625 38.1409375 -3.40625 37.4609375 C-4.19 37.9559375 -4.97375 38.4509375 -5.78125 38.9609375 C-11.64125708 41.38576802 -17.52058272 41.2769914 -23.59375 39.4609375 C-29.58708397 36.88368232 -33.41733434 31.86873216 -35.84375 25.9609375 C-37.14471143 17.86606636 -36.67026871 10.78522333 -32.3046875 3.6640625 C-24.63180302 -6.33543856 -9.90115286 -7.02007969 0 0 Z " fill="#FAFAFA" transform="translate(398.40625,373.5390625)"/>
<path d="M0 0 C6.4659375 -0.0928125 6.4659375 -0.0928125 13.0625 -0.1875 C14.40836182 -0.21481201 15.75422363 -0.24212402 17.14086914 -0.27026367 C30.26509893 -0.36141096 30.26509893 -0.36141096 35.875 4.6875 C37.50679291 8.04174098 38.13517352 11.30051414 38 15 C36.69242902 18.36232538 35.54050545 20.45949455 33 23 C33.63421875 23.66386719 34.2684375 24.32773437 34.921875 25.01171875 C37.38877821 28.55905138 37.86526659 31.62451654 38.25 35.8125 C38.32734375 36.50537109 38.4046875 37.19824219 38.484375 37.91210938 C38.67133957 39.60647581 38.83777927 41.3030858 39 43 C35.37 43 31.74 43 28 43 C27.87882813 42.16855469 27.75765625 41.33710938 27.6328125 40.48046875 C27.46523438 39.39378906 27.29765625 38.30710937 27.125 37.1875 C26.96257813 36.10855469 26.80015625 35.02960938 26.6328125 33.91796875 C26.14867662 30.82678207 26.14867662 30.82678207 24 28 C19.67503241 27.27175996 15.38952129 27.21517261 11 27 C11 32.28 11 37.56 11 43 C7.37 43 3.74 43 0 43 C0 28.81 0 14.62 0 0 Z M11 8 C11 11.63 11 15.26 11 19 C13.10353495 19.0810206 15.20795952 19.13919907 17.3125 19.1875 C18.48425781 19.22230469 19.65601563 19.25710938 20.86328125 19.29296875 C23.95898212 19.26840022 23.95898212 19.26840022 25.8984375 17.6484375 C27.4499323 15.32669706 27.35001162 13.73009061 27 11 C24.2656934 8.2656934 22.23006445 8.04659335 18.421875 7.90234375 C17.09929688 7.91974609 17.09929688 7.91974609 15.75 7.9375 C13.39875 7.9684375 13.39875 7.9684375 11 8 Z " fill="#FCFCFC" transform="translate(806,370)"/>
<path d="M0 0 C4.29 -0.0825 8.58 -0.165 13 -0.25 C14.33675781 -0.28641602 15.67351563 -0.32283203 17.05078125 -0.36035156 C24.18365288 -0.42655486 29.01073864 -0.00243908 35 4 C37.96098774 8.44148161 37.65429499 12.78846436 37 18 C35 21.1875 35 21.1875 33 23 C33.47179687 23.36222656 33.94359375 23.72445313 34.4296875 24.09765625 C36.62475842 26.75685908 36.70105636 29.04209685 37.125 32.4375 C37.5953889 36.06444598 38.11112512 39.44450049 39 43 C35.37 43 31.74 43 28 43 C27.49733206 40.87562952 26.9979439 38.75048274 26.5 36.625 C26.2215625 35.44164062 25.943125 34.25828125 25.65625 33.0390625 C25 30 25 30 25 28 C18.07 27.505 18.07 27.505 11 27 C11 32.28 11 37.56 11 43 C7.37 43 3.74 43 0 43 C0 28.81 0 14.62 0 0 Z M11 8 C11 11.63 11 15.26 11 19 C13.10353495 19.0810206 15.20795952 19.13919907 17.3125 19.1875 C18.48425781 19.22230469 19.65601563 19.25710938 20.86328125 19.29296875 C23.95390572 19.26163472 23.95390572 19.26163472 25.91796875 17.6796875 C27.27641504 15.9039138 27.27641504 15.9039138 27 12.9375 C26.29415271 9.92446797 26.29415271 9.92446797 24.0625 8.625 C19.65249216 7.7249984 15.49918055 7.88002185 11 8 Z " fill="#FBFBFB" transform="translate(984,370)"/>
<path d="M0 0 C5.10677389 3.64471184 8.2106864 7.55418768 9.5625 13.75 C10.25494122 21.18849733 10.21639181 27.6357961 5.5625 33.75 C1.1541143 38.53197771 -3.15303294 41.3526211 -9.75390625 41.96484375 C-16.48451785 42.22173732 -22.29639527 41.61230845 -27.41796875 36.9453125 C-33.26469407 30.55610751 -34.91998273 25.46146636 -34.75 16.82421875 C-34.12158573 10.6421934 -31.96387602 6.38286737 -27.75 1.875 C-19.0764206 -3.68918301 -9.27996899 -5.45068811 0 0 Z M-21.4375 9.75 C-24.37787038 14.37058202 -24.07245334 19.46382223 -23.4375 24.75 C-21.44781547 28.66075925 -20.07216354 30.32689098 -16.4375 32.75 C-10.67957256 33.31411462 -10.67957256 33.31411462 -5.5625 31 C-1.26053056 26.44497354 -1.00311464 22.55211664 -1.1171875 16.44921875 C-1.56606669 12.66659048 -2.87422249 10.52688397 -5.4375 7.75 C-11.08640336 3.60747087 -16.43462578 5.65673927 -21.4375 9.75 Z " fill="#FCFCFC" transform="translate(247.4375,372.25)"/>
<path d="M0 0 C4.33125 -0.061875 8.6625 -0.12375 13.125 -0.1875 C14.47996582 -0.21481201 15.83493164 -0.24212402 17.23095703 -0.27026367 C18.85300049 -0.28150269 18.85300049 -0.28150269 20.5078125 -0.29296875 C21.60754395 -0.3086792 22.70727539 -0.32438965 23.84033203 -0.34057617 C28.55612544 0.16773258 31.82544195 1.97998906 35.375 5.0625 C37.73894371 9.33578285 37.81488627 13.22037862 37 18 C35 21.125 35 21.125 33 23 C33.46019531 23.48984375 33.92039062 23.9796875 34.39453125 24.484375 C36.59251585 27.928419 37.04249784 31.26015059 37.6875 35.25 C37.81705078 35.99507813 37.94660156 36.74015625 38.08007812 37.5078125 C38.39664262 39.33685178 38.69967399 41.16822435 39 43 C35.37 43 31.74 43 28 43 C27.49733206 40.87562952 26.9979439 38.75048274 26.5 36.625 C26.2215625 35.44164062 25.943125 34.25828125 25.65625 33.0390625 C25 30 25 30 25 28 C20.05 27.67 15.1 27.34 10 27 C10 32.28 10 37.56 10 43 C6.7 43 3.4 43 0 43 C0 28.81 0 14.62 0 0 Z M10 8 C10 11.63 10 15.26 10 19 C12.26979665 19.10794277 14.54105196 19.18556176 16.8125 19.25 C18.07707031 19.29640625 19.34164063 19.3428125 20.64453125 19.390625 C24.03685774 19.33594691 24.03685774 19.33594691 25.94921875 17.1484375 C27.19221851 15.00559425 27.19221851 15.00559425 27 12.375 C26.22103159 9.81719557 26.22103159 9.81719557 23.80078125 8.859375 C20.76546864 7.9280378 18.35284868 7.79872654 15.1875 7.875 C12.6196875 7.936875 12.6196875 7.936875 10 8 Z " fill="#FCFCFC" transform="translate(280,370)"/>
<path d="M0 0 C5.30596314 4.93090546 6.66847146 10.53696315 7.12890625 17.55859375 C6.99766538 24.54060824 4.33250895 30.18652762 -0.40234375 35.26953125 C-5.53179407 39.67619539 -11.72566874 40.36653788 -18.30859375 40.15625 C-23.92603003 39.33704054 -28.88015387 37.10036852 -32.8203125 32.9609375 C-37.96978693 26.01136026 -37.76940721 19.09081416 -37.12109375 10.74609375 C-35.50927414 4.56097873 -31.48363591 0.0976826 -26.12109375 -3.25390625 C-17.39501068 -7.26568596 -7.52183215 -5.6110984 0 0 Z M-24.7109375 8.55078125 C-27.13640451 12.32671604 -27.2327476 16.3357668 -27.12109375 20.74609375 C-25.55960431 25.43056207 -23.41144717 28.26722288 -19.12109375 30.74609375 C-14.8623699 31.59265549 -12.00352433 31.26404214 -8.24609375 29.05859375 C-4.22841103 24.68640962 -3.71795355 20.66209638 -3.87109375 14.890625 C-4.37138236 10.5990868 -6.4709309 8.3962566 -9.43359375 5.43359375 C-15.21224722 1.80513692 -20.37954627 3.63406689 -24.7109375 8.55078125 Z " fill="#FAFAFA" transform="translate(1082.12109375,374.25390625)"/>
<path d="M0 0 C4.9066158 3.63089569 8.20134852 7.41386956 10.125 13.3125 C10.98783621 22.16497544 10.65092843 28.98064507 4.9375 36 C-1.17007038 41.02178009 -6.21162108 42.98534738 -14.203125 42.62109375 C-21.64141438 41.76199308 -25.77900717 39.22896822 -30.46484375 33.34765625 C-34.30053822 27.81193099 -34.64334789 21.85306143 -33.875 15.3125 C-32.17877614 8.67216908 -29.84120674 4.02730797 -23.875 0.3125 C-16.30067477 -3.45986901 -7.65543466 -3.96085532 0 0 Z M-20.875 10.3125 C-23.81537038 14.93308202 -23.50995334 20.02632223 -22.875 25.3125 C-20.88531547 29.22325925 -19.50966354 30.88939098 -15.875 33.3125 C-10.9621637 33.8762681 -8.8536619 33.85620105 -4.5 31.4375 C-0.78192814 27.86164947 -0.11656389 23.29962542 0.125 18.3125 C-0.51827793 13.88102981 -1.12774307 12.02239409 -4.375 8.9375 C-10.64816908 4.8599401 -15.05387695 5.54976296 -20.875 10.3125 Z " fill="#FBFBFB" transform="translate(460.875,371.6875)"/>
<path d="M0 0 C11.22 0 22.44 0 34 0 C34 2.97 34 5.94 34 9 C26.41 9 18.82 9 11 9 C11 11.64 11 14.28 11 17 C17.93 17 24.86 17 32 17 C32 19.64 32 22.28 32 25 C25.07 25 18.14 25 11 25 C11 27.97 11 30.94 11 34 C18.92 34 26.84 34 35 34 C35 36.97 35 39.94 35 43 C23.45 43 11.9 43 0 43 C0 28.81 0 14.62 0 0 Z " fill="#FDFDFD" transform="translate(766,370)"/>
<path d="M0 0 C11.22 0 22.44 0 34 0 C34 2.97 34 5.94 34 9 C26.41 9 18.82 9 11 9 C11 11.64 11 14.28 11 17 C17.93 17 24.86 17 32 17 C32 19.64 32 22.28 32 25 C25.07 25 18.14 25 11 25 C11 27.97 11 30.94 11 34 C18.92 34 26.84 34 35 34 C35 36.97 35 39.94 35 43 C23.45 43 11.9 43 0 43 C0 28.81 0 14.62 0 0 Z " fill="#FDFDFD" transform="translate(324,370)"/>
<path d="M0 0 C11.22 0 22.44 0 34 0 C34 2.97 34 5.94 34 9 C26.41 9 18.82 9 11 9 C11 11.64 11 14.28 11 17 C17.93 17 24.86 17 32 17 C32 19.64 32 22.28 32 25 C25.07 25 18.14 25 11 25 C11 27.97 11 30.94 11 34 C18.92 34 26.84 34 35 34 C35 36.97 35 39.94 35 43 C23.45 43 11.9 43 0 43 C0 28.81 0 14.62 0 0 Z " fill="#FDFDFD" transform="translate(47,370)"/>
<path d="M0 0 C4.29 0 8.58 0 13 0 C14.28593872 3.78892659 15.56908288 7.57862527 16.84521484 11.37084961 C17.28011228 12.66046159 17.71662422 13.94953029 18.15478516 15.23803711 C18.78452574 17.0908453 19.40797257 18.94578889 20.03125 20.80078125 C20.40830078 21.91622314 20.78535156 23.03166504 21.17382812 24.1809082 C22 27 22 27 22 30 C22.66 30 23.32 30 24 30 C24.38285156 28.11474609 24.38285156 28.11474609 24.7734375 26.19140625 C26.00746167 20.6382975 27.78405524 15.31440574 29.625 9.9375 C29.94984375 8.97650391 30.2746875 8.01550781 30.609375 7.02539062 C31.40210095 4.68218599 32.20046333 2.34088946 33 0 C37.29 0 41.58 0 46 0 C44.52702754 4.44404025 43.05189923 8.88735755 41.57495117 13.33007812 C41.0750399 14.83477423 40.57567167 16.33965089 40.0769043 17.84472656 C36.84021277 27.61021278 33.49588029 37.32401689 30 47 C25.38 47 20.76 47 16 47 C11.61375338 34.86571231 7.23138941 22.72984072 2.9375 10.5625 C2.63900146 9.72364258 2.34050293 8.88478516 2.03295898 8.02050781 C0 2.23285377 0 2.23285377 0 0 Z " fill="#FCFCFC" transform="translate(630,447)"/>
<path d="M0 0 C5.35793682 4.80840484 5.35793682 4.80840484 5.625 9.4375 C5.5321875 10.79875 5.5321875 10.79875 5.4375 12.1875 C2.05982995 12.47266914 -1.19629304 12.64727461 -4.5625 12.1875 C-6.3125 9.75 -6.3125 9.75 -7.5625 7.1875 C-11.17984062 6.13244232 -12.97247619 5.9908254 -16.5625 7.1875 C-17.29573796 9.20258358 -17.29573796 9.20258358 -17.5625 11.1875 C-13.89443776 12.59829317 -10.25503117 13.97285067 -6.5 15.13671875 C-4.9221875 15.62591797 -4.9221875 15.62591797 -3.3125 16.125 C-2.31734375 16.42277344 -1.3221875 16.72054688 -0.296875 17.02734375 C2.77467289 18.33055764 4.37072289 19.57908476 6.4375 22.1875 C7.85963822 26.46168589 7.74076699 30.24202056 6.375 34.5 C3.28691243 38.78347631 -0.40145519 41.20000767 -5.5625 42.1875 C-13.22089526 42.86356673 -20.06170931 42.6404729 -26.5625 38.1875 C-29.48590726 34.90757966 -30.48810935 33.19177383 -30.8125 28.8125 C-30.73 27.94625 -30.6475 27.08 -30.5625 26.1875 C-27.2625 26.1875 -23.9625 26.1875 -20.5625 26.1875 C-20.315 26.97125 -20.0675 27.755 -19.8125 28.5625 C-18.35290222 31.62765534 -17.67609806 32.04730916 -14.5625 33.1875 C-12.18948611 33.21727744 -12.18948611 33.21727744 -9.8125 32.8125 C-9.01328125 32.70164062 -8.2140625 32.59078125 -7.390625 32.4765625 C-6.78734375 32.38117188 -6.1840625 32.28578125 -5.5625 32.1875 C-5.2325 30.5375 -4.9025 28.8875 -4.5625 27.1875 C-5.08457031 27.01734375 -5.60664062 26.8471875 -6.14453125 26.671875 C-8.62152449 25.85633257 -11.09174118 25.0217361 -13.5625 24.1875 C-14.5215625 23.87425781 -15.480625 23.56101562 -16.46875 23.23828125 C-17.4278125 22.91214844 -18.386875 22.58601563 -19.375 22.25 C-20.26832031 21.95222656 -21.16164063 21.65445312 -22.08203125 21.34765625 C-25.52463651 19.73749285 -27.95243041 17.86435793 -29.27734375 14.22265625 C-29.66899374 10.75277473 -29.78642553 8.70606439 -28.375 5.4375 C-27.776875 4.695 -27.17875 3.9525 -26.5625 3.1875 C-25.985 2.465625 -25.4075 1.74375 -24.8125 1 C-17.90989319 -4.56043327 -7.57843307 -3.85569402 0 0 Z " fill="#FAFAFA" transform="translate(878.5625,371.8125)"/>
<path d="M0 0 C3.63 0 7.26 0 11 0 C11.33 10.89 11.66 21.78 12 33 C14.7357627 33.9119209 16.65625968 34.22244822 19.5 34.3125 C20.2734375 34.34988281 21.046875 34.38726562 21.84375 34.42578125 C24.10949032 34.18521119 24.10949032 34.18521119 25.6027832 32.40795898 C27.47065345 29.18887735 27.43309863 26.75774488 27.51171875 23.046875 C27.52966995 22.38665344 27.54762115 21.72643188 27.56611633 21.04620361 C27.62008809 18.94753311 27.65407043 16.84908823 27.6875 14.75 C27.72068495 13.32288536 27.75517571 11.89580044 27.79101562 10.46875 C27.8758047 6.97938348 27.94267888 3.48993809 28 0 C31.3 0 34.6 0 38 0 C38.09927153 4.73219762 38.17165633 9.46378213 38.21972656 14.19677734 C38.23977627 15.80495774 38.26702364 17.41306583 38.30175781 19.02099609 C38.35057264 21.3397002 38.37303428 23.65743625 38.390625 25.9765625 C38.41127014 26.68930328 38.43191528 27.40204407 38.45318604 28.13638306 C38.45545273 33.23999626 37.20488734 36.07353587 34 40 C27.5501533 44.67613886 20.72772484 44.54763404 13 44 C7.30084722 42.78610103 4.25775163 39.59917877 1 35 C-0.1687481 31.4937557 -0.12514267 28.3522134 -0.09765625 24.70703125 C-0.0962413 24.00100266 -0.09482635 23.29497406 -0.09336853 22.56755066 C-0.08777764 20.31582374 -0.07522688 18.06419679 -0.0625 15.8125 C-0.05748382 14.28450665 -0.05292112 12.75651173 -0.04882812 11.22851562 C-0.0378112 7.48563865 -0.02055287 3.74283627 0 0 Z " fill="#FCFCFC" transform="translate(618,370)"/>
<path d="M0 0 C4.66598683 4.09696405 6.97625604 6.94787746 7.5625 13.25 C4.18179094 13.54032807 0.93332782 13.69520367 -2.4375 13.25 C-4.9375 10.8125 -4.9375 10.8125 -6.4375 8.25 C-9.30358129 6.81695936 -11.25050783 6.94355845 -14.4375 7.25 C-17.91976306 8.72326514 -19.87400935 9.90427973 -21.36328125 13.4609375 C-22.84751343 19.3796548 -22.5902811 23.97004129 -19.4375 29.25 C-17.54339437 31.49486594 -16.41654348 32.14694279 -13.5078125 32.453125 C-10.23853149 32.52497733 -7.54578462 32.28609487 -4.4375 31.25 C-3.20780122 27.73809191 -3.20780122 27.73809191 -2.4375 24.25 C1.1925 24.25 4.8225 24.25 8.5625 24.25 C6.08958304 35.47323853 6.08958304 35.47323853 1.91796875 38.40625 C-4.78903964 42.35985494 -11.07035532 43.42928611 -18.6953125 41.75390625 C-24.75789569 39.71383548 -28.48581422 36.16951236 -31.75 30.6875 C-34.73174697 24.27553192 -34.42799917 16.63754623 -32.4375 9.9375 C-30.09038081 4.65923665 -25.68987684 0.80317588 -20.5234375 -1.6640625 C-13.79457592 -3.74087163 -6.22654516 -3.16987754 0 0 Z " fill="#FBFBFB" transform="translate(33.4375,371.75)"/>
<path d="M0 0 C3.63 0 7.26 0 11 0 C14.7298304 6.97198322 17.54860151 14.25846342 20.3737793 21.62841797 C21.19160138 23.76069337 22.01623845 25.89024078 22.84179688 28.01953125 C26.85773882 38.4309553 26.85773882 38.4309553 28 43 C24.37 43 20.74 43 17 43 C14 37.375 14 37.375 14 34 C6.08 34.495 6.08 34.495 -2 35 C-2.99 37.64 -3.98 40.28 -5 43 C-8.63 43 -12.26 43 -16 43 C-15.32085039 39.60425195 -14.74788013 37.05559797 -13.50952148 33.9440918 C-13.20928574 33.18368088 -12.90904999 32.42326996 -12.59971619 31.63981628 C-12.27677078 30.8344191 -11.95382538 30.02902191 -11.62109375 29.19921875 C-11.28956802 28.36284378 -10.9580423 27.52646881 -10.61647034 26.66474915 C-9.56077063 24.00407378 -8.49922408 21.34577634 -7.4375 18.6875 C-6.71901362 16.87971122 -6.00091028 15.07177015 -5.28320312 13.26367188 C-3.52656887 8.84067107 -1.76468858 4.41979312 0 0 Z M5 13 C4.32942113 14.7902061 3.6636531 16.58221489 3 18.375 C2.62875 19.37273437 2.2575 20.37046875 1.875 21.3984375 C0.89373723 23.85848061 0.89373723 23.85848061 1 26 C3.97 26 6.94 26 10 26 C9.731875 24.5975 9.46375 23.195 9.1875 21.75 C9.03667969 20.96109375 8.88585937 20.1721875 8.73046875 19.359375 C7.91980019 16.74095891 6.74878103 15.08895488 5 13 Z " fill="#FBFBFB" transform="translate(534,370)"/>
<path d="M0 0 C1.51400391 0.01740234 1.51400391 0.01740234 3.05859375 0.03515625 C4.07050781 0.04417969 5.08242188 0.05320312 6.125 0.0625 C7.29869141 0.07990234 7.29869141 0.07990234 8.49609375 0.09765625 C10.77946915 5.89821444 13.05759441 11.70081398 15.33203125 17.50488281 C16.10685585 19.48029552 16.88289398 21.45523267 17.66015625 23.4296875 C18.77531022 26.26308892 19.8861298 29.09815584 20.99609375 31.93359375 C21.34607422 32.82009613 21.69605469 33.70659851 22.05664062 34.6199646 C22.37697266 35.44066437 22.69730469 36.26136414 23.02734375 37.10693359 C23.31158203 37.83085297 23.59582031 38.55477234 23.88867188 39.30062866 C24.49609375 41.09765625 24.49609375 41.09765625 24.49609375 43.09765625 C20.86609375 43.09765625 17.23609375 43.09765625 13.49609375 43.09765625 C12.50609375 40.12765625 11.51609375 37.15765625 10.49609375 34.09765625 C5.21609375 34.09765625 -0.06390625 34.09765625 -5.50390625 34.09765625 C-6.49390625 37.06765625 -7.48390625 40.03765625 -8.50390625 43.09765625 C-12.13390625 43.09765625 -15.76390625 43.09765625 -19.50390625 43.09765625 C-16.96007699 35.04524707 -13.8811851 27.22363565 -10.77832031 19.37451172 C-9.8706081 17.07664959 -8.96830995 14.77670977 -8.06640625 12.4765625 C-7.49120618 11.01680065 -6.91569684 9.55716062 -6.33984375 8.09765625 C-6.07005707 7.40921631 -5.80027039 6.72077637 -5.52230835 6.01147461 C-3.18713505 0.12430324 -3.18713505 0.12430324 0 0 Z M1.49609375 14.09765625 C0.17609375 18.05765625 -1.14390625 22.01765625 -2.50390625 26.09765625 C0.79609375 26.09765625 4.09609375 26.09765625 7.49609375 26.09765625 C6.17609375 22.13765625 4.85609375 18.17765625 3.49609375 14.09765625 C2.83609375 14.09765625 2.17609375 14.09765625 1.49609375 14.09765625 Z " fill="#FCFCFC" transform="translate(956.50390625,369.90234375)"/>
<path d="M0 0 C3.63 0 7.26 0 11 0 C12.33880154 3.93571793 13.67125147 7.87338908 15 11.8125 C15.3815625 12.93205078 15.763125 14.05160156 16.15625 15.20507812 C16.5171875 16.27822266 16.878125 17.35136719 17.25 18.45703125 C17.58515625 19.44678955 17.9203125 20.43654785 18.265625 21.45629883 C19 24 19 24 19 27 C19.66 27 20.32 27 21 27 C21.309375 25.2984375 21.309375 25.2984375 21.625 23.5625 C22.72263452 18.5710671 24.3636024 13.81153148 26.0625 9 C26.3320752 8.23373291 26.60165039 7.46746582 26.87939453 6.67797852 C28.86724688 1.13275312 28.86724688 1.13275312 30 0 C31.85287502 -0.07226502 33.70833878 -0.0838122 35.5625 -0.0625 C36.57441406 -0.05347656 37.58632813 -0.04445313 38.62890625 -0.03515625 C39.41136719 -0.02355469 40.19382812 -0.01195312 41 0 C39.34986874 5.00008501 37.69568436 9.99880436 36.0378418 14.99633789 C35.47522055 16.6942167 34.91368007 18.39245405 34.35327148 20.09106445 C33.54439309 22.54214575 32.7315488 24.99188213 31.91796875 27.44140625 C31.67096725 28.19273331 31.42396576 28.94406036 31.16947937 29.71815491 C29.65698969 34.25657585 27.94288929 38.62786912 26 43 C22.04 43 18.08 43 14 43 C12.32073497 38.32511317 10.6486621 33.64773646 8.98291016 28.96801758 C8.41647191 27.37976601 7.84814936 25.79218504 7.27783203 24.20532227 C6.45356535 21.91080058 5.63633688 19.61387024 4.8203125 17.31640625 C4.56814972 16.61914932 4.31598694 15.9218924 4.05618286 15.20350647 C2.28818994 10.19604714 1.07637681 5.20099915 0 0 Z " fill="#FBFBFB" transform="translate(723,370)"/>
<path d="M0 0 C3.96 0 7.92 0 12 0 C12 12.54 12 25.08 12 38 C19.92 38 27.84 38 36 38 C36 40.97 36 43.94 36 47 C24.12 47 12.24 47 0 47 C0 31.49 0 15.98 0 0 Z " fill="#FCFCFC" transform="translate(555,447)"/>
<path d="M0 0 C12.21 0 24.42 0 37 0 C37 2.97 37 5.94 37 9 C32.71 9 28.42 9 24 9 C24 20.22 24 31.44 24 43 C20.37 43 16.74 43 13 43 C13 31.78 13 20.56 13 9 C8.71 9 4.42 9 0 9 C0 6.03 0 3.06 0 0 Z " fill="#FDFDFD" transform="translate(905,370)"/>
<path d="M0 0 C12.21 0 24.42 0 37 0 C37 2.97 37 5.94 37 9 C32.71 9 28.42 9 24 9 C24 20.22 24 31.44 24 43 C20.7 43 17.4 43 14 43 C14 31.78 14 20.56 14 9 C9.38 9 4.76 9 0 9 C0 6.03 0 3.06 0 0 Z " fill="#FDFDFD" transform="translate(129,370)"/>
<path d="M0 0 C3.3 0 6.6 0 10 0 C10 11.22 10 22.44 10 34 C17.26 34 24.52 34 32 34 C32 36.97 32 39.94 32 43 C21.44 43 10.88 43 0 43 C0 28.81 0 14.62 0 0 Z " fill="#FDFDFD" transform="translate(565,370)"/>
<path d="M0 0 C3.96 0 7.92 0 12 0 C12 15.51 12 31.02 12 47 C8.04 47 4.08 47 0 47 C0 31.49 0 15.98 0 0 Z " fill="#FCFCFC" transform="translate(606,447)"/>
<path d="M0 0 C3.63 0 7.26 0 11 0 C11 14.19 11 28.38 11 43 C7.37 43 3.74 43 0 43 C0 28.81 0 14.62 0 0 Z " fill="#FDFDFD" transform="translate(1028,370)"/>
<path d="M0 0 C3.63 0 7.26 0 11 0 C11 14.19 11 28.38 11 43 C7.37 43 3.74 43 0 43 C0 28.81 0 14.62 0 0 Z " fill="#FDFDFD" transform="translate(709,370)"/>
<path d="M0 0 C3.3 0 6.6 0 10 0 C10 14.19 10 28.38 10 43 C6.7 43 3.4 43 0 43 C0 28.81 0 14.62 0 0 Z " fill="#FDFDFD" transform="translate(891,370)"/>
<path d="M0 0 C3.3 0 6.6 0 10 0 C10 14.19 10 28.38 10 43 C6.7 43 3.4 43 0 43 C0 28.81 0 14.62 0 0 Z " fill="#FDFDFD" transform="translate(411,370)"/>
<path d="M0 0 C-2.26591678 5.26736675 -6.23609255 8.91228221 -11 12 C-14.3087414 12.65776185 -16.60226436 12.43145849 -20 12 C-15.42061177 2.27153889 -10.93084728 -1.42318446 0 0 Z " fill="#F7F7F7" transform="translate(626,431)"/>
</svg>
