<?xml version="1.0" encoding="UTF-8" standalone="no"?>
<!DOCTYPE svg PUBLIC "-//W3C//DTD SVG 1.1//EN" "http://www.w3.org/Graphics/SVG/1.1/DTD/svg11.dtd">
<svg width="100%" height="100%" viewBox="0 0 1000 400" version="1.1" xmlns="http://www.w3.org/2000/svg" xmlns:xlink="http://www.w3.org/1999/xlink" xml:space="preserve" xmlns:serif="http://www.serif.com/" style="fill-rule:evenodd;clip-rule:evenodd;stroke-linejoin:round;stroke-miterlimit:2;">
    <g transform="matrix(4.166667,0,0,4.166667,888.395364,273.418125)">
        <path d="M0,-47.686L-0.912,-46.781L-0.912,-22.816C-0.912,-16.743 -2.463,-12.198 -5.557,-9.177C-8.653,-6.15 -13.301,-4.641 -19.509,-4.641C-23.853,-4.641 -27.43,-5.396 -30.257,-6.912L-32.465,-2.945C-28.541,-1.064 -24.105,0 -19.403,0C-3.425,0 9.532,-12.259 9.532,-27.383C9.532,-35.435 5.852,-42.677 0,-47.686" style="fill:#0d133b;"/>
    </g>
    <g transform="matrix(4.166667,0,0,4.166667,749.210781,97.105625)">
        <path d="M0,33.111C-3.114,30.071 -4.671,25.532 -4.671,19.502L-4.671,-4.468C-4.671,-4.468 -2.864,-7.213 1.136,-9.59C-8.393,-5.112 -14.937,4.192 -14.937,14.936C-14.937,22.632 -11.582,29.586 -6.177,34.558L-9.193,42.701L-0.091,38.855C0.248,39.033 0.59,39.205 0.941,39.368L3.146,35.404C1.965,34.771 0.916,34.009 0,33.111" style="fill:#74c7c2;"/>
    </g>
    <g transform="matrix(4.166667,0,0,4.166667,729.744531,186.667708)">
        <path d="M0,-25.962L11.611,-25.962L11.611,-1.992C11.611,1.525 12.165,4.07 13.268,5.633C14.368,7.198 16.137,7.977 18.565,7.977C21.059,7.977 22.937,7.142 24.202,5.455C25.469,3.776 26.101,1.293 26.101,-1.992L26.101,-25.962L37.161,-25.962L38.077,-26.865C32.942,-31.262 26.138,-33.939 18.669,-33.939C14.047,-33.939 9.683,-32.909 5.807,-31.087C1.808,-28.712 0,-25.962 0,-25.962" style="fill:#04a9c6;"/>
    </g>
    <g transform="matrix(4.166667,0,0,4.166667,838.497031,154.218542)">
        <path d="M0,5.794C0,9.081 -0.632,11.564 -1.897,13.243C-3.163,14.926 -5.043,15.766 -7.536,15.766C-9.967,15.766 -11.733,14.984 -12.837,13.421C-13.938,11.854 -14.488,9.312 -14.488,5.794L-14.488,-18.174L-26.101,-18.174L-26.101,5.794C-26.101,11.826 -24.543,16.361 -21.429,19.401C-20.513,20.3 -19.464,21.061 -18.283,21.696C-15.455,23.212 -11.874,23.968 -7.536,23.968C-1.326,23.968 3.324,22.458 6.42,19.435C9.513,16.411 11.061,11.864 11.061,5.794L11.061,-18.174L0,-18.174L0,5.794Z" style="fill:#fff;"/>
    </g>
    <g transform="matrix(4.166667,0,0,4.166667,301.618333,172.835)">
        <path d="M0,-4.245L-7.433,-4.245L-7.433,-11.503L-0.381,-11.503C0.927,-11.503 1.997,-11.208 2.841,-10.627C3.679,-10.037 4.103,-9.17 4.103,-8.031C4.103,-5.507 2.735,-4.245 0,-4.245M12.992,10.982C12.879,10.305 12.807,9.757 12.775,9.332C12.744,8.912 12.698,8.223 12.63,7.259L12.587,6.717C12.523,5.845 12.386,5.012 12.182,4.214C11.972,3.418 11.688,2.66 11.319,1.938C10.958,1.214 10.466,0.594 9.844,0.065C9.223,-0.459 8.482,-0.812 7.627,-0.992L7.627,-1.085C9.344,-1.715 10.664,-2.768 11.584,-4.245C12.508,-5.715 12.968,-7.351 12.968,-9.159C12.968,-10.72 12.643,-12.079 11.99,-13.238C11.338,-14.398 10.449,-15.343 9.32,-16.081C8.191,-16.817 6.921,-17.359 5.504,-17.702C4.095,-18.05 2.606,-18.224 1.052,-18.224L-16.297,-18.224L-16.297,13.979L-7.433,13.979L-7.433,2.252L-0.712,2.252C0.275,2.252 1.082,2.432 1.717,2.793C2.354,3.156 2.848,3.644 3.193,4.26C3.544,4.877 3.791,5.54 3.934,6.242C4.081,6.953 4.182,7.815 4.248,8.838C4.248,8.867 4.259,9.048 4.293,9.378C4.386,10.404 4.498,11.329 4.623,12.153C4.756,12.979 4.959,13.59 5.244,13.979L14.016,13.979C13.765,13.743 13.558,13.348 13.396,12.806C13.238,12.264 13.105,11.659 12.992,10.982" style="fill:#0d133b;"/>
    </g>
    <g transform="matrix(4.166667,0,0,4.166667,605.416667,128.447083)">
        <path d="M0,17.057C-0.844,17.628 -2.008,17.914 -3.504,17.914L-10.607,17.914L-10.607,10.517L-3.504,10.517C-2.04,10.517 -0.883,10.809 -0.024,11.394C0.833,11.98 1.266,12.953 1.266,14.303C1.266,15.566 0.844,16.484 0,17.057M-10.607,-1.075L-3.745,-1.075C-2.691,-1.075 -1.83,-0.829 -1.142,-0.33C-0.462,0.165 -0.116,0.955 -0.116,2.036C-0.116,3.093 -0.491,3.863 -1.242,4.36C-1.988,4.855 -2.82,5.103 -3.745,5.103L-10.607,5.103L-10.607,-1.075ZM8.559,9.797C7.511,8.414 6.079,7.481 4.263,6.999C5.635,6.336 6.726,5.443 7.53,4.311C8.34,3.188 8.746,1.918 8.746,0.506C8.746,-1.059 8.416,-2.375 7.747,-3.441C7.079,-4.508 6.173,-5.346 5.033,-5.947C3.889,-6.547 2.6,-6.967 1.17,-7.21C-0.263,-7.45 -1.835,-7.573 -3.553,-7.573L-19.473,-7.573L-19.473,24.63L-3.124,24.63C-1.214,24.63 0.536,24.462 2.118,24.113C3.712,23.768 5.109,23.214 6.319,22.445C7.526,21.681 8.462,20.649 9.132,19.357C9.799,18.066 10.132,16.484 10.132,14.622C10.132,12.79 9.608,11.177 8.559,9.797" style="fill:#0d133b;"/>
    </g>
    <g transform="matrix(4.166667,0,0,4.166667,499.645,108.539167)">
        <path d="M0,14.354L0,-2.796L-8.866,-2.796L-8.866,16.604L-8.88,17.15C-7.568,17.018 -6.183,16.811 -4.701,16.507C-3.157,16.191 -1.576,15.459 0,14.354" style="fill:#74c7c2;"/>
    </g>
    <g transform="matrix(4.166667,0,0,4.166667,462.37875,147.240417)">
        <path d="M0,8.717C-0.166,10.152 -0.598,11.265 -1.305,12.051C-2.225,13.073 -3.757,13.581 -5.88,13.581C-8.007,13.581 -9.538,13.073 -10.458,12.051C-11.377,11.023 -11.838,9.451 -11.838,7.315L-11.838,-12.081L-20.706,-12.081L-20.706,6.819C-20.706,11.541 -19.506,15.048 -17.105,17.347C-14.706,19.652 -10.966,20.798 -5.88,20.798C-0.795,20.798 2.945,19.652 5.343,17.347C7.746,15.048 8.946,11.541 8.946,6.819L8.946,6.096C7.441,7.075 5.925,7.742 4.429,8.047C2.862,8.37 1.39,8.585 0,8.717" style="fill:#0d133b;"/>
    </g>
    <g transform="matrix(4.166667,0,0,4.166667,169.178333,134.21875)">
        <path d="M0,-6.356C-0.71,-4.766 -1.539,-3.35 -2.47,-2.113C-1.647,-1.902 -0.911,-1.579 -0.27,-1.13C0.953,-0.274 1.671,0.954 1.899,2.546L10.767,2.546C10.702,0.682 10.214,-1.013 9.312,-2.525C8.405,-4.047 7.202,-5.337 5.712,-6.408C4.219,-7.471 2.566,-8.279 0.755,-8.82L0.444,-8.902C0.262,-7.348 0.05,-6.496 0.039,-6.454L0,-6.356Z" style="fill:#0d133b;"/>
    </g>
    <g transform="matrix(4.166667,0,0,4.166667,117.408333,115.672917)">
        <path d="M0,8.034C0.301,6.894 0.769,5.869 1.407,4.969C2.039,4.067 2.863,3.352 3.883,2.825C4.901,2.297 6.093,2.039 7.459,2.039C7.997,2.039 8.506,2.08 8.992,2.15C9.98,0.891 10.855,-0.575 11.602,-2.237C11.606,-2.26 11.818,-3.129 11.99,-4.675C10.562,-5.008 9.116,-5.182 7.648,-5.182C5.142,-5.182 2.835,-4.753 0.739,-3.897C-1.365,-3.04 -3.166,-1.841 -4.67,-0.309C-6.183,1.225 -7.334,3.013 -8.132,5.058C-8.922,7.1 -9.321,9.281 -9.321,11.599C-9.321,12.14 -9.295,12.68 -9.25,13.216C-6.465,12.713 -3.48,11.506 -0.314,9.606C-0.237,9.073 -0.139,8.548 0,8.034" style="fill:#74c7c2;"/>
    </g>
    <g transform="matrix(4.166667,0,0,4.166667,79.30375,219.778333)">
        <path d="M0,-10.925C0.187,-9.516 0.513,-8.153 1.016,-6.845C1.812,-4.802 2.961,-3.014 4.474,-1.482C5.98,0.05 7.784,1.246 9.882,2.102C11.981,2.959 14.284,3.388 16.792,3.388C18.96,3.388 20.96,3.09 22.8,2.489C24.644,1.889 26.256,1.023 27.641,-0.107C29.024,-1.234 30.119,-2.615 30.93,-4.257C31.74,-5.892 32.207,-7.734 32.334,-9.779L23.469,-9.779C23.306,-7.913 22.642,-6.456 21.466,-5.408C20.289,-4.353 18.67,-3.826 16.606,-3.826C15.239,-3.826 14.045,-4.091 13.025,-4.616C12.012,-5.139 11.185,-5.854 10.553,-6.756C9.913,-7.66 9.444,-8.683 9.146,-9.825C8.839,-10.967 8.693,-12.152 8.693,-13.386C8.693,-13.697 8.703,-14.009 8.721,-14.313C5.648,-12.539 2.735,-11.414 0,-10.925" style="fill:#0d133b;"/>
    </g>
</svg>
